<svg xmlns="http://www.w3.org/2000/svg" xmlns:xlink="http://www.w3.org/1999/xlink" width="64" height="61"><defs><path id="d" d="M.387.243.523.234A.28.28 0 0 0 .454.058.21.21 0 0 0 .291-.01a.21.21 0 0 0-.187.091.43.43 0 0 0-.065.252q0 .161.064.253a.22.22 0 0 0 .19.091Q.502.677.52.419L.386.409Q.381.558.294.558.248.558.221.51A.4.4 0 0 1 .193.324q0-.123.025-.169A.08.08 0 0 1 .293.109q.08 0 .094.134"/><path id="e" d="M.063.667h.215L.372.255l.106.412h.209V0H.549v.558L.413 0H.307L.182.558V0H.063z"/><path id="f" d="M-.028.667h.161L.227.423l.101.244h.143L.286.282V0H.139v.282z"/><path id="h" d="M.037.307h.199V.199H.037z"/><path id="i" d="M.063.667H.21V0H.063z"/><path id="j" d="M.051.493h.13V.426a.12.12 0 0 0 .12.077q.088 0 .106-.077.033.077.12.077A.14.14 0 0 0 .604.485a.1.1 0 0 0 .04-.048.4.4 0 0 0 .011-.115V0H.518v.308A.2.2 0 0 1 .51.38Q.502.397.475.397.443.397.433.375a.3.3 0 0 1-.01-.088V0H.286v.313a.2.2 0 0 1-.008.068Q.271.396.244.397.211.397.2.374A.2.2 0 0 1 .189.287V0H.051z"/><path id="k" d="M.051.493h.127V.42Q.218.5.29.5A.14.14 0 0 0 .403.439Q.448.379.448.255A.36.36 0 0 0 .404.059.14.14 0 0 0 .28-.007a.12.12 0 0 0-.094.044v-.204H.051zM.186.202q0-.07.012-.092Q.209.089.244.088a.05.05 0 0 1 .047.029q.015.028.015.137a.4.4 0 0 1-.013.123Q.279.41.248.409a.06.06 0 0 1-.044-.02Q.186.369.186.295z"/><path id="l" d="M.051.493h.121V.374Q.205.5.289.5L.312.497V.363L.289.365q-.1 0-.1-.153V0H.051z"/><path id="m" d="M.43.224H.171V.196Q.171.13.19.108A.06.06 0 0 1 .237.085Q.3.085.308.17L.43.162Q.397-.01.234-.01q-.1 0-.152.068a.3.3 0 0 0-.053.181q0 .129.056.196a.18.18 0 0 0 .148.068q.084 0 .141-.06T.43.224M.3.303l.001.014q0 .095-.065.095-.063 0-.064-.109z"/><path id="n" d="M.376.375.278.345Q.258.412.206.412.163.412.163.369q0-.024.016-.037a.3.3 0 0 1 .066-.03A1 1 0 0 0 .328.267.12.12 0 0 0 .373.221a.14.14 0 0 0 .018-.07.15.15 0 0 0-.05-.115Q.293-.01.204-.01q-.167 0-.185.147l.11.017Q.142.081.206.081q.055 0 .055.046a.05.05 0 0 1-.016.037.3.3 0 0 1-.063.027.24.24 0 0 0-.116.066.13.13 0 0 0-.032.089q0 .072.05.115a.2.2 0 0 0 .125.043q.132 0 .167-.129"/><path id="o" d="M.431.247q0-.257-.2-.257Q.03-.01.03.247q0 .256.201.256.2 0 .2-.256m-.142 0a.4.4 0 0 1-.013.127Q.262.407.231.407T.186.376A.4.4 0 0 1 .172.247q0-.09.012-.126.01-.035.047-.035.033 0 .045.035a.4.4 0 0 1 .013.126m.058.429L.391.644Q.341.569.279.569a.2.2 0 0 0-.062.018.2.2 0 0 1-.059.019Q.139.606.111.575L.069.608q.055.069.107.069A.2.2 0 0 0 .241.66.2.2 0 0 1 .3.641q.023 0 .047.035"/><path id="p" d="M.063.667H.21V.398h.16v.269h.146V0H.37v.273H.21V0H.063z"/><path id="q" d="M.523.334q0-.344-.242-.344-.12 0-.181.087a.45.45 0 0 0-.061.257q0 .343.242.343a.21.21 0 0 0 .18-.086.44.44 0 0 0 .062-.257m-.154 0a.5.5 0 0 1-.021.179Q.327.558.281.558T.214.513A.5.5 0 0 1 .193.334q0-.132.021-.179.02-.046.067-.046.045 0 .066.044.022.045.022.181"/><path id="r" d="M.063.667h.21q.06 0 .093-.006A.16.16 0 0 0 .484.563.24.24 0 0 0 .503.467q0-.125-.094-.175L.531 0H.372L.283.264H.21V0H.063zM.21.559V.372h.064Q.36.372.36.468q0 .033-.013.054a.07.07 0 0 1-.029.029.1.1 0 0 1-.05.008z"/><path id="s" d="M.022.667H.45V.563L.171.119h.288V0H.001v.102l.281.445h-.26z"/><path id="t" d="M.058.667H.22L.392.253v.414h.113V0H.374L.171.483V0H.058z"/><path id="u" d="M-.012.667h.416V.542H.268V0H.121v.542h-.133z"/><path id="v" d="M.181.667h.147L.519 0h-.15L.336.138H.148L.115 0H-.02zM.308.252.241.524.176.252z"/><path id="w" d="M.063.667H.21V.125h.214V0H.063z"/><path id="x" d="M.063.667h.192A.5.5 0 0 0 .39.652.15.15 0 0 0 .471.586.23.23 0 0 0 .504.458.26.26 0 0 0 .478.337.16.16 0 0 0 .405.268.4.4 0 0 0 .261.247H.21V0H.063zM.21.559V.361h.045q.06 0 .077.028A.13.13 0 0 1 .35.462a.1.1 0 0 1-.014.06Q.323.546.305.552a.2.2 0 0 1-.05.007z"/><path id="y" d="M-.014.667H.14L.243.159l.106.508h.125L.311-.004.147 0z"/><path id="z" d="M.063.667h.405V.552H.21V.398h.201V.283H.21V.119h.258V0H.063z"/><path id="A" d="M.471.522.35.475Q.324.558.255.558.222.558.204.539A.06.06 0 0 1 .185.497q0-.029.022-.045A.4.4 0 0 1 .3.407.6.6 0 0 0 .402.36.18.18 0 0 0 .484.203.2.2 0 0 0 .42.05a.24.24 0 0 0-.172-.06q-.181 0-.232.183L.144.21Q.167.11.251.109q.038 0 .062.02t.024.052A.06.06 0 0 1 .32.224a.2.2 0 0 1-.076.041 1 1 0 0 0-.115.05.2.2 0 0 0-.062.063.2.2 0 0 0-.024.094q0 .09.058.147.058.058.153.058.174 0 .217-.155"/><path id="B" d="M.523.334q0-.344-.242-.344-.12 0-.181.087a.45.45 0 0 0-.061.257q0 .343.242.343a.21.21 0 0 0 .18-.086.44.44 0 0 0 .062-.257m-.154 0a.5.5 0 0 1-.021.179Q.327.558.281.558T.214.513A.5.5 0 0 1 .193.334q0-.132.021-.179.02-.046.067-.046.045 0 .066.044.022.045.022.181m.03.499L.442.8Q.392.726.33.726a.2.2 0 0 0-.061.017.2.2 0 0 1-.06.019q-.02 0-.046-.031L.121.764q.054.07.107.07A.2.2 0 0 0 .292.817a.2.2 0 0 1 .06-.019q.021 0 .047.035"/><path id="C" d="M.063.667h.158q.102 0 .167-.028A.2.2 0 0 0 .49.537a.4.4 0 0 0 .039-.2.5.5 0 0 0-.024-.16.3.3 0 0 0-.061-.11.2.2 0 0 0-.086-.053A.5.5 0 0 0 .238 0H.063zM.21.552V.115h.024q.052 0 .079.019.028.02.045.068a.5.5 0 0 1 .016.141q0 .084-.018.131A.13.13 0 0 1 .31.536a.15.15 0 0 1-.076.016z"/><path id="D" d="M.297.356h.231V0H.466L.447.076A.18.18 0 0 0 .286-.01a.21.21 0 0 0-.18.089.4.4 0 0 0-.067.241q0 .165.066.261a.22.22 0 0 0 .194.096q.205 0 .229-.229L.397.427Q.383.557.302.558q-.05 0-.079-.049Q.193.461.193.326q0-.12.029-.168A.09.09 0 0 1 .307.109q.089 0 .09.132h-.1z"/><path id="E" d="M.063.667h.228a.4.4 0 0 0 .12-.013A.13.13 0 0 0 .48.598.2.2 0 0 0 .507.491Q.507.38.412.348.525.308.525.184q0-.065-.03-.109a.15.15 0 0 0-.076-.06A.4.4 0 0 0 .291 0H.063zM.204.398h.047q.07 0 .089.025a.1.1 0 0 1 .018.058q0 .03-.018.054T.262.559H.204zm0-.283h.071q.102 0 .102.087Q.377.25.351.27T.275.29H.204z"/><path id="F" d="M.189.534h-.14V.67h.14zM.05.493h.138V0H.05z"/><path id="G" d="M.47.574v-.09a.1.1 0 0 1-.029.004Q.397.488.388.444A.14.14 0 0 0 .425.345a.13.13 0 0 0-.05-.107.2.2 0 0 0-.129-.04.3.3 0 0 0-.064.008Q.15.188.15.166q0-.02.018-.025a1 1 0 0 1 .099-.01.6.6 0 0 0 .111-.015.12.12 0 0 0 .061-.042.13.13 0 0 0 .025-.083q0-.165-.241-.165-.202 0-.202.117 0 .066.081.092-.065.03-.065.086 0 .063.085.108Q.049.265.049.352q0 .074.05.112a.22.22 0 0 0 .135.039A.3.3 0 0 0 .34.482q.005.052.026.075.021.022.066.022A.1.1 0 0 0 .47.574M.283.35q0 .08-.044.079Q.213.429.202.41A.14.14 0 0 1 .191.346q0-.075.047-.074.024 0 .035.017.01.018.01.061M.178.022Q.134.001.134-.038q0-.05.114-.05.096 0 .097.052a.05.05 0 0 1-.011.031.05.05 0 0 1-.027.015L.239.016z"/><path id="H" d="m.071.645.134.004V.493h.091V.385H.205V.204q0-.051.002-.065A.04.04 0 0 1 .222.114q.012-.01.042-.01l.039.001V0a.4.4 0 0 0-.084-.01.16.16 0 0 0-.096.024.1.1 0 0 0-.042.06.5.5 0 0 0-.01.115v.196H.017v.108h.054z"/><path id="I" d="M.183.337.052.349a.16.16 0 0 0 .064.114.22.22 0 0 0 .136.041.2.2 0 0 0 .111-.027Q.405.45.416.415A.4.4 0 0 0 .427.306V.109Q.427.018.435 0H.308a.3.3 0 0 0-.007.076Q.256-.01.166-.01a.13.13 0 0 0-.094.034Q.036.059.036.125q0 .082.054.127.055.045.2.054v.019a.2.2 0 0 1-.01.068Q.27.413.241.412.188.412.183.337M.29.236A.2.2 0 0 1 .204.209Q.178.189.178.143.178.08.224.08.25.08.269.108.29.136.29.212z"/><path id="J" d="M.05.667h.138V0H.05z"/><path id="K" d="M.368.694.585.097A.2.2 0 0 1 .607.051.06.06 0 0 1 .636.033L.682.02l.001-.022L.564 0 .433-.002.431.02l.046.013.014.008q.004.004.004.013L.49.079.476.122.43.253H.194L.143.122.127.079A.1.1 0 0 1 .121.053q0-.007.005-.012L.14.034.185.021l.001-.023L.073 0l-.098-.002-.003.022.05.015Q.04.041.049.053a.2.2 0 0 1 .019.038l.25.596zM.212.297h.202L.318.566z"/><path id="L" d="M.279.415a.2.2 0 0 1-.062.007.14.14 0 0 1-.074-.017.06.06 0 0 1-.028-.049.06.06 0 0 1 .019-.047.2.2 0 0 1 .068-.034l.04-.013A.3.3 0 0 0 .341.209.1.1 0 0 0 .372.132.12.12 0 0 0 .319.025a.2.2 0 0 0-.133-.039q-.074 0-.152.031.017.063.027.124L.08.144.115.039A.2.2 0 0 1 .186.028q.046 0 .073.018.027.019.027.053a.06.06 0 0 1-.019.049.2.2 0 0 1-.058.031L.158.196a.2.2 0 0 0-.091.053.12.12 0 0 0-.025.077q0 .065.049.101a.2.2 0 0 0 .128.037.4.4 0 0 0 .135-.022A1 1 0 0 1 .329.325L.31.321z"/><path id="M" d="M.441.035a.3.3 0 0 0-.167-.049.24.24 0 0 0-.172.062.22.22 0 0 0-.064.17.26.26 0 0 0 .061.177.21.21 0 0 0 .164.069q.086 0 .134-.052A.2.2 0 0 0 .445.27L.443.242H.134q0-.105.049-.15.05-.045.154-.045.047 0 .101.009zM.348.283v.014q0 .07-.022.1T.259.426A.1.1 0 0 1 .17.384.2.2 0 0 1 .136.283z"/><path id="N" d="M.137.231q0-.092.034-.149A.11.11 0 0 1 .273.024q.063 0 .096.051a.3.3 0 0 1 .033.15.27.27 0 0 1-.035.147.11.11 0 0 1-.1.053.11.11 0 0 1-.096-.048Q.137.329.137.231m.365.004a.25.25 0 0 0-.068-.18.23.23 0 0 0-.17-.069A.22.22 0 0 0 .1.051.24.24 0 0 0 .038.22q0 .107.065.176a.23.23 0 0 0 .173.068A.22.22 0 0 0 .44.401.23.23 0 0 0 .502.235"/><path id="O" d="M.028.43Q.11.446.183.464L.188.461V.403q.09.061.177.061L.368.461.34.31.32.307a1 1 0 0 1-.026.066.04.04 0 0 1-.04.026.14.14 0 0 1-.066-.025V.163L.189.054q0-.014.012-.017L.266.019l.002-.021L.144 0 .03-.002.028.019l.057.016Q.097.04.097.05l.001.06v.167L.096.396.031.413z"/><path id="P" d="M.193.637A.06.06 0 0 0 .177.595.05.05 0 0 0 .136.578a.06.06 0 0 0-.04.015.06.06 0 0 0-.015.04q0 .027.016.042a.06.06 0 0 0 .042.016.06.06 0 0 0 .039-.014.05.05 0 0 0 .015-.04M.028.43q.086.016.159.034L.191.461.188.321V.133L.189.052A.02.02 0 0 1 .201.035L.258.019l.001-.021L.144 0 .03-.002.028.019l.057.016A.02.02 0 0 1 .097.05l.001.064v.163L.096.396.031.413z"/><path id="Q" d="M.301.221A.35.35 0 0 1 .155.2Q.116.18.116.129q0-.045.026-.065a.1.1 0 0 1 .07-.019A.2.2 0 0 1 .3.062zM.065.422a.4.4 0 0 0 .168.042q.075 0 .116-.039.042-.04.042-.113L.388.109l.001-.04A.1.1 0 0 1 .398.046Q.405.038.42.035A.1.1 0 0 1 .458.031L.46.012Q.439.004.409-.005a.2.2 0 0 0-.041-.008q-.047 0-.065.049a.23.23 0 0 0-.129-.05.16.16 0 0 0-.109.034Q.024.053.024.114q0 .075.067.111a.5.5 0 0 0 .21.036l.001.038q0 .054-.028.081Q.245.406.187.406A.5.5 0 0 1 .076.39z"/><path id="R" d="M.575.513.556.51.52.639a.5.5 0 0 1-.11.015A.23.23 0 0 1 .222.57.33.33 0 0 1 .154.354q0-.143.078-.228A.28.28 0 0 1 .448.041q.078 0 .164.03L.617.049a.38.38 0 0 0-.218-.067.35.35 0 0 0-.254.097.34.34 0 0 0-.097.253q0 .168.107.265a.4.4 0 0 0 .278.098.8.8 0 0 0 .169-.02L.606.671z"/><path id="S" d="M.028.43q.083.016.155.034L.188.461V.404a.3.3 0 0 0 .158.06.15.15 0 0 0 .109-.039Q.494.387.494.315V.143L.495.052A.02.02 0 0 1 .508.035L.562.019l.001-.021L.451 0 .344-.002.342.019l.049.014q.012.003.012.015l.001.031v.213q0 .06-.029.086Q.347.404.29.404A.2.2 0 0 1 .188.376V.162L.189.05Q.189.038.2.034L.251.019l.001-.021L.144 0 .03-.002.028.019l.058.016Q.096.04.097.05l.001.06v.167L.096.396.031.413z"/><path id="T" d="M.175.399.172.133q0-.05.015-.07T.245.044q.033 0 .088.009L.336.031a.35.35 0 0 0-.151-.043q-.054 0-.079.029Q.079.046.08.103l.003.299-.067.017-.003.02.075.006.034.119.049.014.005-.004-.001-.11V.446h.147V.399z"/><path id="U" d="M.301.221A.35.35 0 0 1 .155.2Q.116.18.116.129q0-.045.026-.065a.1.1 0 0 1 .07-.019A.2.2 0 0 1 .3.062zM.065.422a.4.4 0 0 0 .168.042q.075 0 .116-.039.042-.04.042-.113L.388.109l.001-.04A.1.1 0 0 1 .398.046Q.405.038.42.035A.1.1 0 0 1 .458.031L.46.012Q.439.004.409-.005a.2.2 0 0 0-.041-.008q-.047 0-.065.049a.23.23 0 0 0-.129-.05.16.16 0 0 0-.109.034Q.024.053.024.114q0 .075.067.111a.5.5 0 0 0 .21.036l.001.038q0 .054-.028.081Q.245.406.187.406A.5.5 0 0 1 .076.39zm.189.27h.098L.236.51H.203z"/><path id="V" d="M.176.042a.2.2 0 0 1 .08-.013q.083 0 .123.05Q.42.13.42.223a.2.2 0 0 1-.038.134Q.344.405.27.405A.2.2 0 0 1 .176.383zm.003.69a6 6 0 0 1-.003-.22V.413Q.254.464.32.464A.18.18 0 0 0 .465.402a.24.24 0 0 0 .053-.16A.25.25 0 0 0 .45.054a.26.26 0 0 0-.191-.067.6.6 0 0 0-.174.028l.001.159v.29L.084.666.018.685.015.701q.081.015.159.035z"/><path id="W" d="M.027.685.025.701q.087.017.159.035L.189.732.186.511V.193L.187.052Q.188.038.2.035L.254.019l.001-.021L.141 0 .028-.002.026.019l.055.016Q.094.039.094.05l.001.123v.201q0 .181-.002.292z"/><clipPath id="a"><path d="M0 61h64V0H0Z"/></clipPath><clipPath id="b"><path d="M-424 740.323h612.709V-119H-424Z"/></clipPath><clipPath id="c"><path d="M-424.283 740.606h614v-860h-614Z" clip-rule="evenodd"/></clipPath><clipPath id="X"><path d="M-75.258 137.627h226.771v171.491H-75.258Z" clip-rule="evenodd"/></clipPath><clipPath id="Y"><path d="M-75.258 87.844h236.944v250.97H-75.542V87.844Z" clip-rule="evenodd"/></clipPath><clipPath id="Z"><path d="M-75.258 533.05h226.771v171.491H-75.258Z" clip-rule="evenodd"/></clipPath><clipPath id="aa"><path d="M-75.258 483.267h236.944v250.97H-75.542v-250.97Z" clip-rule="evenodd"/></clipPath><clipPath id="ab"><path d="M-386.962 146.736h247.311v153.273h-247.311Z" clip-rule="evenodd"/></clipPath><clipPath id="ac"><path d="M-386.962 58.718h258.379V332.37h-258.663V58.718Z" clip-rule="evenodd"/></clipPath><clipPath id="ad"><path d="M-379.156 544.318h247.312V697.59h-247.312Z" clip-rule="evenodd"/></clipPath><clipPath id="ae"><path d="M-379.156 456.3h258.38v273.651h-258.663V456.3Z" clip-rule="evenodd"/></clipPath></defs><g clip-path="url(#a)"><g clip-path="url(#b)"><g clip-path="url(#c)"><use xlink:href="#d" fill="#231f20" data-text="C" transform="matrix(20 0 0 -20 -386.962 -4.406)"/><use xlink:href="#e" fill="#231f20" data-text="M" transform="matrix(20 0 0 -20 -376.062 -4.406)"/><use xlink:href="#f" fill="#231f20" data-text="Y" transform="matrix(20 0 0 -20 -361.062 -4.406)"/><use xlink:href="#d" fill="#231f20" data-text="C" transform="matrix(20 0 0 -20 -352.492 -4.406)"/><use xlink:href="#h" fill="#231f20" data-text="-" transform="matrix(20 0 0 -20 -337.852 -4.406)"/><use xlink:href="#i" fill="#231f20" data-text="I" transform="matrix(20 0 0 -20 -328.652 -4.406)"/><use xlink:href="#j" fill="#231f20" data-text="m" transform="matrix(20 0 0 -20 -323.192 -4.406)"/><use xlink:href="#k" fill="#231f20" data-text="p" transform="matrix(20 0 0 -20 -309.185 -4.406)"/><use xlink:href="#l" fill="#231f20" data-text="r" transform="matrix(20 0 0 -20 -299.645 -4.406)"/><use xlink:href="#m" fill="#231f20" data-text="e" transform="matrix(20 0 0 -20 -293.505 -4.406)"/><use xlink:href="#n" fill="#231f20" data-text="s" transform="matrix(20 0 0 -20 -284.305 -4.406)"/><use xlink:href="#n" fill="#231f20" data-text="s" transform="matrix(20 0 0 -20 -276.125 -4.406)"/><use xlink:href="#o" fill="#231f20" data-text="õ" transform="matrix(20 0 0 -20 -267.945 -4.406)"/><use xlink:href="#m" fill="#231f20" data-text="e" transform="matrix(20 0 0 -20 -258.745 -4.406)"/><use xlink:href="#n" fill="#231f20" data-text="s" transform="matrix(20 0 0 -20 -249.545 -4.406)"/><use xlink:href="#d" fill="#231f20" data-text="C" transform="matrix(20 0 0 -20 -117.67 -3.656)"/><use xlink:href="#e" fill="#231f20" data-text="M" transform="matrix(20 0 0 -20 -106.77 -3.656)"/><use xlink:href="#f" fill="#231f20" data-text="Y" transform="matrix(20 0 0 -20 -91.77 -3.656)"/><use xlink:href="#d" fill="#231f20" data-text="C" transform="matrix(20 0 0 -20 -83.2 -3.656)"/><use xlink:href="#h" fill="#231f20" data-text="-" transform="matrix(20 0 0 -20 -68.56 -3.656)"/><use xlink:href="#i" fill="#231f20" data-text="I" transform="matrix(20 0 0 -20 -59.36 -3.656)"/><use xlink:href="#j" fill="#231f20" data-text="m" transform="matrix(20 0 0 -20 -53.9 -3.656)"/><use xlink:href="#k" fill="#231f20" data-text="p" transform="matrix(20 0 0 -20 -39.894 -3.656)"/><use xlink:href="#l" fill="#231f20" data-text="r" transform="matrix(20 0 0 -20 -30.354 -3.656)"/><use xlink:href="#m" fill="#231f20" data-text="e" transform="matrix(20 0 0 -20 -24.214 -3.656)"/><use xlink:href="#n" fill="#231f20" data-text="s" transform="matrix(20 0 0 -20 -15.014 -3.656)"/><use xlink:href="#n" fill="#231f20" data-text="s" transform="matrix(20 0 0 -20 -6.834 -3.656)"/><use xlink:href="#o" fill="#231f20" data-text="õ" transform="matrix(20 0 0 -20 1.346 -3.656)"/><use xlink:href="#m" fill="#231f20" data-text="e" transform="matrix(20 0 0 -20 10.546 -3.656)"/><use xlink:href="#n" fill="#231f20" data-text="s" transform="matrix(20 0 0 -20 19.746 -3.656)"/><use xlink:href="#p" fill="#231f20" data-text="H" transform="matrix(12.966 0 0 -12.966 -386.962 -44.814)"/><use xlink:href="#q" fill="#231f20" data-text="O" transform="matrix(12.966 0 0 -12.966 -379.455 -44.814)"/><use xlink:href="#r" fill="#231f20" data-text="R" transform="matrix(12.966 0 0 -12.966 -372.168 -44.814)"/><use xlink:href="#i" fill="#231f20" data-text="I" transform="matrix(12.966 0 0 -12.966 -365.102 -44.814)"/><use xlink:href="#s" fill="#231f20" data-text="Z" transform="matrix(12.966 0 0 -12.966 -361.562 -44.814)"/><use xlink:href="#q" fill="#231f20" data-text="O" transform="matrix(12.966 0 0 -12.966 -355.598 -44.814)"/><use xlink:href="#t" fill="#231f20" data-text="N" transform="matrix(12.966 0 0 -12.966 -348.31 -44.814)"/><use xlink:href="#u" fill="#231f20" data-text="T" transform="matrix(12.966 0 0 -12.966 -341.024 -44.814)"/><use xlink:href="#v" fill="#231f20" data-text="A" transform="matrix(12.966 0 0 -12.966 -336.12 -44.814)"/><use xlink:href="#w" fill="#231f20" data-text="L" transform="matrix(12.966 0 0 -12.966 -329.494 -44.814)"/><use xlink:href="#d" fill="#231f20" data-text="C" transform="matrix(12.967 0 0 -12.967 -117.67 -44.814)"/><use xlink:href="#q" fill="#231f20" data-text="O" transform="matrix(12.967 0 0 -12.967 -110.604 -44.814)"/><use xlink:href="#e" fill="#231f20" data-text="M" transform="matrix(12.967 0 0 -12.967 -103.316 -44.814)"/><use xlink:href="#x" fill="#231f20" data-text="P" transform="matrix(12.967 0 0 -12.967 -93.591 -44.814)"/><use xlink:href="#v" fill="#231f20" data-text="A" transform="matrix(12.967 0 0 -12.967 -87.176 -44.814)"/><use xlink:href="#d" fill="#231f20" data-text="C" transform="matrix(12.967 0 0 -12.967 -80.676 -44.814)"/><use xlink:href="#u" fill="#231f20" data-text="T" transform="matrix(12.967 0 0 -12.967 -73.609 -44.814)"/><use xlink:href="#v" fill="#231f20" data-text="A" transform="matrix(12.967 0 0 -12.967 -68.697 -44.814)"/><use xlink:href="#y" fill="#231f20" data-text="V" transform="matrix(24 0 0 -24 -192.456 -65.668)"/><use xlink:href="#z" fill="#231f20" data-text="E" transform="matrix(24 0 0 -24 -181.416 -65.668)"/><use xlink:href="#r" fill="#231f20" data-text="R" transform="matrix(24 0 0 -24 -169.968 -65.668)"/><use xlink:href="#A" fill="#231f20" data-text="S" transform="matrix(24 0 0 -24 -156.888 -65.668)"/><use xlink:href="#B" fill="#231f20" data-text="Õ" transform="matrix(24 0 0 -24 -144.624 -65.668)"/><use xlink:href="#z" fill="#231f20" data-text="E" transform="matrix(24 0 0 -24 -131.136 -65.668)"/><use xlink:href="#A" fill="#231f20" data-text="S" transform="matrix(24 0 0 -24 -119.688 -65.668)"/><use xlink:href="#C" fill="#231f20" data-text="D" transform="matrix(24 0 0 -24 -102.936 -65.668)"/><use xlink:href="#v" fill="#231f20" data-text="A" transform="matrix(24 0 0 -24 -89.57 -65.668)"/><use xlink:href="#w" fill="#231f20" data-text="L" transform="matrix(24 0 0 -24 -72.817 -65.668)"/><use xlink:href="#q" fill="#231f20" data-text="O" transform="matrix(24 0 0 -24 -62.534 -65.668)"/><use xlink:href="#D" fill="#231f20" data-text="G" transform="matrix(24 0 0 -24 -49.046 -65.668)"/><use xlink:href="#q" fill="#231f20" data-text="O" transform="matrix(24 0 0 -24 -35.126 -65.668)"/><use xlink:href="#r" fill="#030406" data-text="R" transform="matrix(20 0 0 -20 -386.962 380.312)"/><use xlink:href="#D" fill="#030406" data-text="G" transform="matrix(20 0 0 -20 -376.159 380.312)"/><use xlink:href="#E" fill="#030406" data-text="B" transform="matrix(20 0 0 -20 -364.559 380.312)"/><use xlink:href="#h" fill="#030406" data-text="-" transform="matrix(20 0 0 -20 -349.579 380.312)"/><use xlink:href="#C" fill="#030406" data-text="D" transform="matrix(20 0 0 -20 -340.379 380.312)"/><use xlink:href="#F" fill="#030406" data-text="i" transform="matrix(20 0 0 -20 -329.139 380.312)"/><use xlink:href="#G" fill="#030406" data-text="g" transform="matrix(20 0 0 -20 -324.379 380.312)"/><use xlink:href="#F" fill="#030406" data-text="i" transform="matrix(20 0 0 -20 -315.179 380.312)"/><use xlink:href="#H" fill="#030406" data-text="t" transform="matrix(20 0 0 -20 -310.419 380.312)"/><use xlink:href="#I" fill="#030406" data-text="a" transform="matrix(20 0 0 -20 -304.132 380.312)"/><use xlink:href="#J" fill="#030406" data-text="l" transform="matrix(20 0 0 -20 -294.592 380.312)"/><use xlink:href="#r" fill="#030406" data-text="R" transform="matrix(20 0 0 -20 -117.67 380.312)"/><use xlink:href="#D" fill="#030406" data-text="G" transform="matrix(20 0 0 -20 -106.868 380.312)"/><use xlink:href="#E" fill="#030406" data-text="B" transform="matrix(20 0 0 -20 -95.268 380.312)"/><use xlink:href="#h" fill="#030406" data-text="-" transform="matrix(20 0 0 -20 -80.288 380.312)"/><use xlink:href="#C" fill="#030406" data-text="D" transform="matrix(20 0 0 -20 -71.088 380.312)"/><use xlink:href="#F" fill="#030406" data-text="i" transform="matrix(20 0 0 -20 -59.848 380.312)"/><use xlink:href="#G" fill="#030406" data-text="g" transform="matrix(20 0 0 -20 -55.088 380.312)"/><use xlink:href="#F" fill="#030406" data-text="i" transform="matrix(20 0 0 -20 -45.888 380.312)"/><use xlink:href="#H" fill="#030406" data-text="t" transform="matrix(20 0 0 -20 -41.128 380.312)"/><use xlink:href="#I" fill="#030406" data-text="a" transform="matrix(20 0 0 -20 -34.84 380.312)"/><use xlink:href="#J" fill="#030406" data-text="l" transform="matrix(20 0 0 -20 -25.3 380.312)"/><path fill="#111b21" fill-rule="evenodd" d="M38.652 1.638c8.075 0 15.524 2.68 21.508 7.196a36 36 0 0 0-19.47-5.682c-19.974 0-36.168 16.193-36.168 36.168A36 36 0 0 0 9.69 57.957h-.258a35.58 35.58 0 0 1-6.518-20.58c0-19.738 16-35.739 35.739-35.739"/><path fill="#111b21" fill-rule="evenodd" d="M16.93 15.977h9.56v41.98h-9.56ZM33.348 31.305h9.56v26.652h-9.56ZM50.805 15.977h9.56v41.98h-9.56Z"/><use xlink:href="#z" fill="#111b21" data-text="E" transform="matrix(29.806 0 0 -29.806 -32.276 81.304)"/><use xlink:href="#t" fill="#111b21" data-text="N" transform="matrix(29.806 0 0 -29.806 -18.059 81.304)"/><use xlink:href="#u" fill="#111b21" data-text="T" transform="matrix(29.806 0 0 -29.806 -1.308 81.304)"/><use xlink:href="#z" fill="#111b21" data-text="E" transform="matrix(29.806 0 0 -29.806 10.376 81.304)"/><use xlink:href="#r" fill="#111b21" data-text="R" transform="matrix(29.806 0 0 -29.806 24.594 81.304)"/><use xlink:href="#x" fill="#111b21" data-text="P" transform="matrix(29.806 0 0 -29.806 40.838 81.304)"/><use xlink:href="#r" fill="#111b21" data-text="R" transform="matrix(29.806 0 0 -29.806 56.069 81.304)"/><use xlink:href="#i" fill="#111b21" data-text="I" transform="matrix(29.806 0 0 -29.806 72.313 81.304)"/><use xlink:href="#A" fill="#111b21" data-text="S" transform="matrix(29.806 0 0 -29.806 80.45 81.304)"/><use xlink:href="#z" fill="#111b21" data-text="E" transform="matrix(29.806 0 0 -29.806 95.681 81.304)"/><use xlink:href="#K" fill="#111b21" data-text="A" transform="matrix(13.005 0 0 -13.005 -31.915 94.24)"/><use xlink:href="#L" fill="#111b21" data-text="s" transform="matrix(13.005 0 0 -13.005 -21.448 94.24)"/><use xlink:href="#L" fill="#111b21" data-text="s" transform="matrix(13.005 0 0 -13.005 -14.486 94.24)"/><use xlink:href="#M" fill="#111b21" data-text="e" transform="matrix(13.005 0 0 -13.005 -7.524 94.24)"/><use xlink:href="#L" fill="#111b21" data-text="s" transform="matrix(13.005 0 0 -13.005 .403 94.24)"/><use xlink:href="#L" fill="#111b21" data-text="s" transform="matrix(13.005 0 0 -13.005 7.364 94.24)"/><use xlink:href="#N" fill="#111b21" data-text="o" transform="matrix(13.005 0 0 -13.005 14.327 94.24)"/><use xlink:href="#O" fill="#111b21" data-text="r" transform="matrix(13.005 0 0 -13.005 23.053 94.24)"/><use xlink:href="#P" fill="#111b21" data-text="i" transform="matrix(13.005 0 0 -13.005 29.735 94.24)"/><use xlink:href="#Q" fill="#111b21" data-text="a" transform="matrix(13.005 0 0 -13.005 35.115 94.24)"/><use xlink:href="#R" fill="#111b21" data-text="C" transform="matrix(13.005 0 0 -13.005 49.76 94.542)"/><use xlink:href="#N" fill="#111b21" data-text="o" transform="matrix(13.005 0 0 -13.005 59.77 94.542)"/><use xlink:href="#S" fill="#111b21" data-text="n" transform="matrix(13.005 0 0 -13.005 68.496 94.542)"/><use xlink:href="#T" fill="#111b21" data-text="t" transform="matrix(13.005 0 0 -13.005 77.762 94.542)"/><use xlink:href="#U" fill="#111b21" data-text="á" transform="matrix(13.005 0 0 -13.005 84.05 94.542)"/><use xlink:href="#V" fill="#111b21" data-text="b" transform="matrix(13.005 0 0 -13.005 91.99 94.542)"/><use xlink:href="#P" fill="#111b21" data-text="i" transform="matrix(13.005 0 0 -13.005 100.932 94.542)"/><use xlink:href="#W" fill="#111b21" data-text="l" transform="matrix(13.005 0 0 -13.005 106.312 94.542)"/><path fill="#030406" fill-rule="evenodd" d="M38.652 397.061c8.075 0 15.524 2.68 21.508 7.196a36 36 0 0 0-19.47-5.682c-19.974 0-36.168 16.193-36.168 36.168A36 36 0 0 0 9.69 453.38h-.258a35.58 35.58 0 0 1-6.518-20.58c0-19.738 16-35.739 35.739-35.739"/><path fill="#030406" fill-rule="evenodd" d="M16.93 411.4h9.56v41.98h-9.56ZM33.348 426.728h9.56v26.652h-9.56ZM50.805 411.4h9.56v41.98h-9.56Z"/><use xlink:href="#z" fill="#030406" data-text="E" transform="matrix(29.806 0 0 -29.806 -32.276 476.727)"/><use xlink:href="#t" fill="#030406" data-text="N" transform="matrix(29.806 0 0 -29.806 -18.059 476.727)"/><use xlink:href="#u" fill="#030406" data-text="T" transform="matrix(29.806 0 0 -29.806 -1.308 476.727)"/><use xlink:href="#z" fill="#030406" data-text="E" transform="matrix(29.806 0 0 -29.806 10.376 476.727)"/><use xlink:href="#r" fill="#030406" data-text="R" transform="matrix(29.806 0 0 -29.806 24.594 476.727)"/><use xlink:href="#x" fill="#030406" data-text="P" transform="matrix(29.806 0 0 -29.806 40.838 476.727)"/><use xlink:href="#r" fill="#030406" data-text="R" transform="matrix(29.806 0 0 -29.806 56.069 476.727)"/><use xlink:href="#i" fill="#030406" data-text="I" transform="matrix(29.806 0 0 -29.806 72.313 476.727)"/><use xlink:href="#A" fill="#030406" data-text="S" transform="matrix(29.806 0 0 -29.806 80.45 476.727)"/><use xlink:href="#z" fill="#030406" data-text="E" transform="matrix(29.806 0 0 -29.806 95.681 476.727)"/><use xlink:href="#K" fill="#030406" data-text="A" transform="matrix(13.005 0 0 -13.005 -31.915 489.663)"/><use xlink:href="#L" fill="#030406" data-text="s" transform="matrix(13.005 0 0 -13.005 -21.448 489.663)"/><use xlink:href="#L" fill="#030406" data-text="s" transform="matrix(13.005 0 0 -13.005 -14.486 489.663)"/><use xlink:href="#M" fill="#030406" data-text="e" transform="matrix(13.005 0 0 -13.005 -7.524 489.663)"/><use xlink:href="#L" fill="#030406" data-text="s" transform="matrix(13.005 0 0 -13.005 .403 489.663)"/><use xlink:href="#L" fill="#030406" data-text="s" transform="matrix(13.005 0 0 -13.005 7.364 489.663)"/><use xlink:href="#N" fill="#030406" data-text="o" transform="matrix(13.005 0 0 -13.005 14.327 489.663)"/><use xlink:href="#O" fill="#030406" data-text="r" transform="matrix(13.005 0 0 -13.005 23.053 489.663)"/><use xlink:href="#P" fill="#030406" data-text="i" transform="matrix(13.005 0 0 -13.005 29.735 489.663)"/><use xlink:href="#Q" fill="#030406" data-text="a" transform="matrix(13.005 0 0 -13.005 35.115 489.663)"/><use xlink:href="#R" fill="#030406" data-text="C" transform="matrix(13.005 0 0 -13.005 49.76 489.965)"/><use xlink:href="#N" fill="#030406" data-text="o" transform="matrix(13.005 0 0 -13.005 59.77 489.965)"/><use xlink:href="#S" fill="#030406" data-text="n" transform="matrix(13.005 0 0 -13.005 68.496 489.965)"/><use xlink:href="#T" fill="#030406" data-text="t" transform="matrix(13.005 0 0 -13.005 77.762 489.965)"/><use xlink:href="#U" fill="#030406" data-text="á" transform="matrix(13.005 0 0 -13.005 84.05 489.965)"/><use xlink:href="#V" fill="#030406" data-text="b" transform="matrix(13.005 0 0 -13.005 91.99 489.965)"/><use xlink:href="#P" fill="#030406" data-text="i" transform="matrix(13.005 0 0 -13.005 100.932 489.965)"/><use xlink:href="#W" fill="#030406" data-text="l" transform="matrix(13.005 0 0 -13.005 106.312 489.965)"/><path fill="#fff" fill-rule="evenodd" d="M38.654 146.849c8.109 0 15.59 2.69 21.599 7.226a36.15 36.15 0 0 0-19.552-5.706c-20.06 0-36.32 16.261-36.32 36.32 0 6.847 1.895 13.25 5.188 18.716H9.31a35.72 35.72 0 0 1-6.546-20.667c0-19.821 16.068-35.89 35.89-35.89"/><path fill="#fff" fill-rule="evenodd" d="M16.84 161.249h9.6v42.156h-9.6ZM33.327 176.641h9.6v26.764h-9.6ZM50.858 161.249h9.6v42.156h-9.6Z"/><use xlink:href="#z" fill="#fff" data-text="E" transform="matrix(29.932 0 0 -29.932 -32.576 226.851)"/><use xlink:href="#t" fill="#fff" data-text="N" transform="matrix(29.932 0 0 -29.932 -18.299 226.851)"/><use xlink:href="#u" fill="#fff" data-text="T" transform="matrix(29.932 0 0 -29.932 -1.477 226.851)"/><use xlink:href="#z" fill="#fff" data-text="E" transform="matrix(29.932 0 0 -29.932 10.256 226.851)"/><use xlink:href="#r" fill="#fff" data-text="R" transform="matrix(29.932 0 0 -29.932 24.534 226.851)"/><use xlink:href="#x" fill="#fff" data-text="P" transform="matrix(29.932 0 0 -29.932 40.847 226.851)"/><use xlink:href="#r" fill="#fff" data-text="R" transform="matrix(29.932 0 0 -29.932 56.142 226.851)"/><use xlink:href="#i" fill="#fff" data-text="I" transform="matrix(29.932 0 0 -29.932 72.455 226.851)"/><use xlink:href="#A" fill="#fff" data-text="S" transform="matrix(29.932 0 0 -29.932 80.626 226.851)"/><use xlink:href="#z" fill="#fff" data-text="E" transform="matrix(29.932 0 0 -29.932 95.922 226.851)"/><use xlink:href="#K" fill="#fff" data-text="A" transform="matrix(13.059 0 0 -13.059 -32.213 239.841)"/><use xlink:href="#L" fill="#fff" data-text="s" transform="matrix(13.059 0 0 -13.059 -21.702 239.841)"/><use xlink:href="#L" fill="#fff" data-text="s" transform="matrix(13.059 0 0 -13.059 -14.712 239.841)"/><use xlink:href="#M" fill="#fff" data-text="e" transform="matrix(13.059 0 0 -13.059 -7.72 239.841)"/><use xlink:href="#L" fill="#fff" data-text="s" transform="matrix(13.059 0 0 -13.059 .24 239.841)"/><use xlink:href="#L" fill="#fff" data-text="s" transform="matrix(13.059 0 0 -13.059 7.23 239.841)"/><use xlink:href="#N" fill="#fff" data-text="o" transform="matrix(13.059 0 0 -13.059 14.22 239.841)"/><use xlink:href="#O" fill="#fff" data-text="r" transform="matrix(13.059 0 0 -13.059 22.984 239.841)"/><use xlink:href="#P" fill="#fff" data-text="i" transform="matrix(13.059 0 0 -13.059 29.694 239.841)"/><use xlink:href="#Q" fill="#fff" data-text="a" transform="matrix(13.059 0 0 -13.059 35.096 239.841)"/><use xlink:href="#R" fill="#fff" data-text="C" transform="matrix(13.059 0 0 -13.059 49.806 240.145)"/><use xlink:href="#N" fill="#fff" data-text="o" transform="matrix(13.059 0 0 -13.059 59.857 240.145)"/><use xlink:href="#S" fill="#fff" data-text="n" transform="matrix(13.059 0 0 -13.059 68.62 240.145)"/><use xlink:href="#T" fill="#fff" data-text="t" transform="matrix(13.059 0 0 -13.059 77.925 240.145)"/><use xlink:href="#U" fill="#fff" data-text="á" transform="matrix(13.059 0 0 -13.059 84.239 240.145)"/><use xlink:href="#V" fill="#fff" data-text="b" transform="matrix(13.059 0 0 -13.059 92.212 240.145)"/><use xlink:href="#P" fill="#fff" data-text="i" transform="matrix(13.059 0 0 -13.059 101.192 240.145)"/><use xlink:href="#W" fill="#fff" data-text="l" transform="matrix(13.059 0 0 -13.059 106.595 240.145)"/><path fill="#fff" fill-rule="evenodd" d="M38.654 542.272c8.109 0 15.59 2.69 21.599 7.226a36.15 36.15 0 0 0-19.552-5.706c-20.06 0-36.32 16.261-36.32 36.32 0 6.847 1.895 13.25 5.188 18.716H9.31a35.72 35.72 0 0 1-6.546-20.667c0-19.821 16.068-35.89 35.89-35.89"/><path fill="#fff" fill-rule="evenodd" d="M16.84 556.672h9.6v42.156h-9.6ZM33.327 572.064h9.6v26.764h-9.6ZM50.858 556.672h9.6v42.156h-9.6Z"/><use xlink:href="#z" fill="#fff" data-text="E" transform="matrix(29.932 0 0 -29.932 -32.576 622.274)"/><use xlink:href="#t" fill="#fff" data-text="N" transform="matrix(29.932 0 0 -29.932 -18.299 622.274)"/><use xlink:href="#u" fill="#fff" data-text="T" transform="matrix(29.932 0 0 -29.932 -1.477 622.274)"/><use xlink:href="#z" fill="#fff" data-text="E" transform="matrix(29.932 0 0 -29.932 10.256 622.274)"/><use xlink:href="#r" fill="#fff" data-text="R" transform="matrix(29.932 0 0 -29.932 24.534 622.274)"/><use xlink:href="#x" fill="#fff" data-text="P" transform="matrix(29.932 0 0 -29.932 40.847 622.274)"/><use xlink:href="#r" fill="#fff" data-text="R" transform="matrix(29.932 0 0 -29.932 56.142 622.274)"/><use xlink:href="#i" fill="#fff" data-text="I" transform="matrix(29.932 0 0 -29.932 72.455 622.274)"/><use xlink:href="#A" fill="#fff" data-text="S" transform="matrix(29.932 0 0 -29.932 80.626 622.274)"/><use xlink:href="#z" fill="#fff" data-text="E" transform="matrix(29.932 0 0 -29.932 95.922 622.274)"/><use xlink:href="#K" fill="#fff" data-text="A" transform="matrix(13.059 0 0 -13.059 -32.213 635.264)"/><use xlink:href="#L" fill="#fff" data-text="s" transform="matrix(13.059 0 0 -13.059 -21.702 635.264)"/><use xlink:href="#L" fill="#fff" data-text="s" transform="matrix(13.059 0 0 -13.059 -14.712 635.264)"/><use xlink:href="#M" fill="#fff" data-text="e" transform="matrix(13.059 0 0 -13.059 -7.72 635.264)"/><use xlink:href="#L" fill="#fff" data-text="s" transform="matrix(13.059 0 0 -13.059 .24 635.264)"/><use xlink:href="#L" fill="#fff" data-text="s" transform="matrix(13.059 0 0 -13.059 7.23 635.264)"/><use xlink:href="#N" fill="#fff" data-text="o" transform="matrix(13.059 0 0 -13.059 14.22 635.264)"/><use xlink:href="#O" fill="#fff" data-text="r" transform="matrix(13.059 0 0 -13.059 22.984 635.264)"/><use xlink:href="#P" fill="#fff" data-text="i" transform="matrix(13.059 0 0 -13.059 29.694 635.264)"/><use xlink:href="#Q" fill="#fff" data-text="a" transform="matrix(13.059 0 0 -13.059 35.096 635.264)"/><use xlink:href="#R" fill="#fff" data-text="C" transform="matrix(13.059 0 0 -13.059 49.806 635.568)"/><use xlink:href="#N" fill="#fff" data-text="o" transform="matrix(13.059 0 0 -13.059 59.857 635.568)"/><use xlink:href="#S" fill="#fff" data-text="n" transform="matrix(13.059 0 0 -13.059 68.62 635.568)"/><use xlink:href="#T" fill="#fff" data-text="t" transform="matrix(13.059 0 0 -13.059 77.925 635.568)"/><use xlink:href="#U" fill="#fff" data-text="á" transform="matrix(13.059 0 0 -13.059 84.239 635.568)"/><use xlink:href="#V" fill="#fff" data-text="b" transform="matrix(13.059 0 0 -13.059 92.212 635.568)"/><use xlink:href="#P" fill="#fff" data-text="i" transform="matrix(13.059 0 0 -13.059 101.192 635.568)"/><use xlink:href="#W" fill="#fff" data-text="l" transform="matrix(13.059 0 0 -13.059 106.595 635.568)"/><use xlink:href="#z" fill="#111b21" data-text="E" transform="matrix(35.915 0 0 -35.915 -317.034 58.927)"/><use xlink:href="#t" fill="#111b21" data-text="N" transform="matrix(35.915 0 0 -35.915 -299.902 58.927)"/><use xlink:href="#u" fill="#111b21" data-text="T" transform="matrix(35.915 0 0 -35.915 -279.718 58.927)"/><use xlink:href="#z" fill="#111b21" data-text="E" transform="matrix(35.915 0 0 -35.915 -265.64 58.927)"/><use xlink:href="#r" fill="#111b21" data-text="R" transform="matrix(35.915 0 0 -35.915 -248.508 58.927)"/><use xlink:href="#x" fill="#111b21" data-text="P" transform="matrix(35.915 0 0 -35.915 -228.934 58.927)"/><use xlink:href="#r" fill="#111b21" data-text="R" transform="matrix(35.915 0 0 -35.915 -210.582 58.927)"/><use xlink:href="#i" fill="#111b21" data-text="I" transform="matrix(35.915 0 0 -35.915 -191.008 58.927)"/><use xlink:href="#A" fill="#111b21" data-text="S" transform="matrix(35.915 0 0 -35.915 -181.203 58.927)"/><use xlink:href="#z" fill="#111b21" data-text="E" transform="matrix(35.915 0 0 -35.915 -162.85 58.927)"/><use xlink:href="#K" fill="#111b21" data-text="A" transform="matrix(15.117 0 0 -15.117 -316.613 74.242)"/><use xlink:href="#L" fill="#111b21" data-text="s" transform="matrix(15.117 0 0 -15.117 -304.143 74.242)"/><use xlink:href="#L" fill="#111b21" data-text="s" transform="matrix(15.117 0 0 -15.117 -295.747 74.242)"/><use xlink:href="#M" fill="#111b21" data-text="e" transform="matrix(15.117 0 0 -15.117 -287.35 74.242)"/><use xlink:href="#L" fill="#111b21" data-text="s" transform="matrix(15.117 0 0 -15.117 -277.834 74.242)"/><use xlink:href="#L" fill="#111b21" data-text="s" transform="matrix(15.117 0 0 -15.117 -269.437 74.242)"/><use xlink:href="#N" fill="#111b21" data-text="o" transform="matrix(15.117 0 0 -15.117 -261.041 74.242)"/><use xlink:href="#O" fill="#111b21" data-text="r" transform="matrix(15.117 0 0 -15.117 -250.595 74.242)"/><use xlink:href="#P" fill="#111b21" data-text="i" transform="matrix(15.117 0 0 -15.117 -242.524 74.242)"/><use xlink:href="#Q" fill="#111b21" data-text="a" transform="matrix(15.117 0 0 -15.117 -235.967 74.242)"/><use xlink:href="#R" fill="#111b21" data-text="C" transform="matrix(15.117 0 0 -15.117 -217.761 74.593)"/><use xlink:href="#N" fill="#111b21" data-text="o" transform="matrix(15.117 0 0 -15.117 -205.823 74.593)"/><use xlink:href="#S" fill="#111b21" data-text="n" transform="matrix(15.117 0 0 -15.117 -195.377 74.593)"/><use xlink:href="#T" fill="#111b21" data-text="t" transform="matrix(15.117 0 0 -15.117 -184.302 74.593)"/><use xlink:href="#U" fill="#111b21" data-text="á" transform="matrix(15.117 0 0 -15.117 -176.69 74.593)"/><use xlink:href="#V" fill="#111b21" data-text="b" transform="matrix(15.117 0 0 -15.117 -167.157 74.593)"/><use xlink:href="#P" fill="#111b21" data-text="i" transform="matrix(15.117 0 0 -15.117 -156.458 74.593)"/><use xlink:href="#W" fill="#111b21" data-text="l" transform="matrix(15.117 0 0 -15.117 -149.901 74.593)"/><path fill="#111b21" fill-rule="evenodd" d="M-346.984 21.55a33.42 33.42 0 0 1 20.202 6.76 33.8 33.8 0 0 0-18.286-5.338c-18.762 0-33.972 15.21-33.972 33.971a33.8 33.8 0 0 0 4.853 17.505h-.242a33.4 33.4 0 0 1-6.123-19.33c0-18.539 15.03-33.568 33.568-33.568"/><path fill="#111b21" fill-rule="evenodd" d="M-367.386 35.019h8.98v39.43h-8.98ZM-351.965 49.415h8.979v25.033h-8.98ZM-335.569 35.019h8.98v39.43h-8.98Z"/><use xlink:href="#z" fill="#030406" data-text="E" transform="matrix(35.915 0 0 -35.915 -309.218 456.51)"/><use xlink:href="#t" fill="#030406" data-text="N" transform="matrix(35.915 0 0 -35.915 -292.086 456.51)"/><use xlink:href="#u" fill="#030406" data-text="T" transform="matrix(35.915 0 0 -35.915 -271.902 456.51)"/><use xlink:href="#z" fill="#030406" data-text="E" transform="matrix(35.915 0 0 -35.915 -257.824 456.51)"/><use xlink:href="#r" fill="#030406" data-text="R" transform="matrix(35.915 0 0 -35.915 -240.692 456.51)"/><use xlink:href="#x" fill="#030406" data-text="P" transform="matrix(35.915 0 0 -35.915 -221.118 456.51)"/><use xlink:href="#r" fill="#030406" data-text="R" transform="matrix(35.915 0 0 -35.915 -202.766 456.51)"/><use xlink:href="#i" fill="#030406" data-text="I" transform="matrix(35.915 0 0 -35.915 -183.192 456.51)"/><use xlink:href="#A" fill="#030406" data-text="S" transform="matrix(35.915 0 0 -35.915 -173.387 456.51)"/><use xlink:href="#z" fill="#030406" data-text="E" transform="matrix(35.915 0 0 -35.915 -155.035 456.51)"/><use xlink:href="#K" fill="#030406" data-text="A" transform="matrix(15.117 0 0 -15.117 -308.797 471.824)"/><use xlink:href="#L" fill="#030406" data-text="s" transform="matrix(15.117 0 0 -15.117 -296.327 471.824)"/><use xlink:href="#L" fill="#030406" data-text="s" transform="matrix(15.117 0 0 -15.117 -287.931 471.824)"/><use xlink:href="#M" fill="#030406" data-text="e" transform="matrix(15.117 0 0 -15.117 -279.535 471.824)"/><use xlink:href="#L" fill="#030406" data-text="s" transform="matrix(15.117 0 0 -15.117 -270.018 471.824)"/><use xlink:href="#L" fill="#030406" data-text="s" transform="matrix(15.117 0 0 -15.117 -261.622 471.824)"/><use xlink:href="#N" fill="#030406" data-text="o" transform="matrix(15.117 0 0 -15.117 -253.226 471.824)"/><use xlink:href="#O" fill="#030406" data-text="r" transform="matrix(15.117 0 0 -15.117 -242.78 471.824)"/><use xlink:href="#P" fill="#030406" data-text="i" transform="matrix(15.117 0 0 -15.117 -234.708 471.824)"/><use xlink:href="#Q" fill="#030406" data-text="a" transform="matrix(15.117 0 0 -15.117 -228.151 471.824)"/><use xlink:href="#R" fill="#030406" data-text="C" transform="matrix(15.117 0 0 -15.117 -209.945 472.175)"/><use xlink:href="#N" fill="#030406" data-text="o" transform="matrix(15.117 0 0 -15.117 -198.007 472.175)"/><use xlink:href="#S" fill="#030406" data-text="n" transform="matrix(15.117 0 0 -15.117 -187.56 472.175)"/><use xlink:href="#T" fill="#030406" data-text="t" transform="matrix(15.117 0 0 -15.117 -176.486 472.175)"/><use xlink:href="#U" fill="#030406" data-text="á" transform="matrix(15.117 0 0 -15.117 -168.874 472.175)"/><use xlink:href="#V" fill="#030406" data-text="b" transform="matrix(15.117 0 0 -15.117 -159.341 472.175)"/><use xlink:href="#P" fill="#030406" data-text="i" transform="matrix(15.117 0 0 -15.117 -148.642 472.175)"/><use xlink:href="#W" fill="#030406" data-text="l" transform="matrix(15.117 0 0 -15.117 -142.085 472.175)"/><path fill="#030406" fill-rule="evenodd" d="M-339.177 419.132a33.4 33.4 0 0 1 20.202 6.76 33.8 33.8 0 0 0-18.287-5.338c-18.762 0-33.971 15.21-33.971 33.971a33.8 33.8 0 0 0 4.853 17.505h-.243a33.4 33.4 0 0 1-6.122-19.33c0-18.539 15.029-33.568 33.568-33.568"/><path fill="#030406" fill-rule="evenodd" d="M-359.58 432.6h8.98v39.43h-8.98ZM-344.159 446.997h8.98v25.033h-8.98ZM-327.762 432.6h8.979v39.43h-8.98Z"/><use xlink:href="#z" fill="#fff" data-text="E" transform="matrix(35.915 0 0 -35.915 -316.878 199.772)"/><use xlink:href="#t" fill="#fff" data-text="N" transform="matrix(35.915 0 0 -35.915 -299.747 199.772)"/><use xlink:href="#u" fill="#fff" data-text="T" transform="matrix(35.915 0 0 -35.915 -279.563 199.772)"/><use xlink:href="#z" fill="#fff" data-text="E" transform="matrix(35.915 0 0 -35.915 -265.484 199.772)"/><use xlink:href="#r" fill="#fff" data-text="R" transform="matrix(35.915 0 0 -35.915 -248.352 199.772)"/><use xlink:href="#x" fill="#fff" data-text="P" transform="matrix(35.915 0 0 -35.915 -228.779 199.772)"/><use xlink:href="#r" fill="#fff" data-text="R" transform="matrix(35.915 0 0 -35.915 -210.426 199.772)"/><use xlink:href="#i" fill="#fff" data-text="I" transform="matrix(35.915 0 0 -35.915 -190.852 199.772)"/><use xlink:href="#A" fill="#fff" data-text="S" transform="matrix(35.915 0 0 -35.915 -181.048 199.772)"/><use xlink:href="#z" fill="#fff" data-text="E" transform="matrix(35.915 0 0 -35.915 -162.695 199.772)"/><use xlink:href="#K" fill="#fff" data-text="A" transform="matrix(15.117 0 0 -15.117 -316.458 215.086)"/><use xlink:href="#L" fill="#fff" data-text="s" transform="matrix(15.117 0 0 -15.117 -303.988 215.086)"/><use xlink:href="#L" fill="#fff" data-text="s" transform="matrix(15.117 0 0 -15.117 -295.592 215.086)"/><use xlink:href="#M" fill="#fff" data-text="e" transform="matrix(15.117 0 0 -15.117 -287.195 215.086)"/><use xlink:href="#L" fill="#fff" data-text="s" transform="matrix(15.117 0 0 -15.117 -277.679 215.086)"/><use xlink:href="#L" fill="#fff" data-text="s" transform="matrix(15.117 0 0 -15.117 -269.283 215.086)"/><use xlink:href="#N" fill="#fff" data-text="o" transform="matrix(15.117 0 0 -15.117 -260.887 215.086)"/><use xlink:href="#O" fill="#fff" data-text="r" transform="matrix(15.117 0 0 -15.117 -250.44 215.086)"/><use xlink:href="#P" fill="#fff" data-text="i" transform="matrix(15.117 0 0 -15.117 -242.369 215.086)"/><use xlink:href="#Q" fill="#fff" data-text="a" transform="matrix(15.117 0 0 -15.117 -235.812 215.086)"/><use xlink:href="#R" fill="#fff" data-text="C" transform="matrix(15.117 0 0 -15.117 -217.606 215.437)"/><use xlink:href="#N" fill="#fff" data-text="o" transform="matrix(15.117 0 0 -15.117 -205.667 215.437)"/><use xlink:href="#S" fill="#fff" data-text="n" transform="matrix(15.117 0 0 -15.117 -195.22 215.437)"/><use xlink:href="#T" fill="#fff" data-text="t" transform="matrix(15.117 0 0 -15.117 -184.147 215.437)"/><use xlink:href="#U" fill="#fff" data-text="á" transform="matrix(15.117 0 0 -15.117 -176.534 215.437)"/><use xlink:href="#V" fill="#fff" data-text="b" transform="matrix(15.117 0 0 -15.117 -167.002 215.437)"/><use xlink:href="#P" fill="#fff" data-text="i" transform="matrix(15.117 0 0 -15.117 -156.302 215.437)"/><use xlink:href="#W" fill="#fff" data-text="l" transform="matrix(15.117 0 0 -15.117 -149.746 215.437)"/><path fill="#fff" fill-rule="evenodd" d="M-346.828 162.394a33.42 33.42 0 0 1 20.202 6.76 33.8 33.8 0 0 0-18.287-5.338c-18.762 0-33.972 15.21-33.972 33.972a33.8 33.8 0 0 0 4.853 17.505h-.242a33.4 33.4 0 0 1-6.122-19.331c0-18.539 15.029-33.568 33.567-33.568"/><path fill="#fff" fill-rule="evenodd" d="M-367.23 175.863h8.979v39.43h-8.98ZM-351.81 190.26h8.98v25.033h-8.98ZM-335.414 175.863h8.98v39.43h-8.98Z"/><use xlink:href="#z" fill="#fff" data-text="E" transform="matrix(35.915 0 0 -35.915 -309.062 597.354)"/><use xlink:href="#t" fill="#fff" data-text="N" transform="matrix(35.915 0 0 -35.915 -291.93 597.354)"/><use xlink:href="#u" fill="#fff" data-text="T" transform="matrix(35.915 0 0 -35.915 -271.747 597.354)"/><use xlink:href="#z" fill="#fff" data-text="E" transform="matrix(35.915 0 0 -35.915 -257.668 597.354)"/><use xlink:href="#r" fill="#fff" data-text="R" transform="matrix(35.915 0 0 -35.915 -240.536 597.354)"/><use xlink:href="#x" fill="#fff" data-text="P" transform="matrix(35.915 0 0 -35.915 -220.963 597.354)"/><use xlink:href="#r" fill="#fff" data-text="R" transform="matrix(35.915 0 0 -35.915 -202.61 597.354)"/><use xlink:href="#i" fill="#fff" data-text="I" transform="matrix(35.915 0 0 -35.915 -183.036 597.354)"/><use xlink:href="#A" fill="#fff" data-text="S" transform="matrix(35.915 0 0 -35.915 -173.232 597.354)"/><use xlink:href="#z" fill="#fff" data-text="E" transform="matrix(35.915 0 0 -35.915 -154.88 597.354)"/><use xlink:href="#K" fill="#fff" data-text="A" transform="matrix(15.117 0 0 -15.117 -308.642 612.668)"/><use xlink:href="#L" fill="#fff" data-text="s" transform="matrix(15.117 0 0 -15.117 -296.171 612.668)"/><use xlink:href="#L" fill="#fff" data-text="s" transform="matrix(15.117 0 0 -15.117 -287.776 612.668)"/><use xlink:href="#M" fill="#fff" data-text="e" transform="matrix(15.117 0 0 -15.117 -279.38 612.668)"/><use xlink:href="#L" fill="#fff" data-text="s" transform="matrix(15.117 0 0 -15.117 -269.863 612.668)"/><use xlink:href="#L" fill="#fff" data-text="s" transform="matrix(15.117 0 0 -15.117 -261.467 612.668)"/><use xlink:href="#N" fill="#fff" data-text="o" transform="matrix(15.117 0 0 -15.117 -253.07 612.668)"/><use xlink:href="#O" fill="#fff" data-text="r" transform="matrix(15.117 0 0 -15.117 -242.623 612.668)"/><use xlink:href="#P" fill="#fff" data-text="i" transform="matrix(15.117 0 0 -15.117 -234.552 612.668)"/><use xlink:href="#Q" fill="#fff" data-text="a" transform="matrix(15.117 0 0 -15.117 -227.995 612.668)"/><use xlink:href="#R" fill="#fff" data-text="C" transform="matrix(15.117 0 0 -15.117 -209.79 613.019)"/><use xlink:href="#N" fill="#fff" data-text="o" transform="matrix(15.117 0 0 -15.117 -197.851 613.019)"/><use xlink:href="#S" fill="#fff" data-text="n" transform="matrix(15.117 0 0 -15.117 -187.405 613.019)"/><use xlink:href="#T" fill="#fff" data-text="t" transform="matrix(15.117 0 0 -15.117 -176.33 613.019)"/><use xlink:href="#U" fill="#fff" data-text="á" transform="matrix(15.117 0 0 -15.117 -168.718 613.019)"/><use xlink:href="#V" fill="#fff" data-text="b" transform="matrix(15.117 0 0 -15.117 -159.186 613.019)"/><use xlink:href="#P" fill="#fff" data-text="i" transform="matrix(15.117 0 0 -15.117 -148.487 613.019)"/><use xlink:href="#W" fill="#fff" data-text="l" transform="matrix(15.117 0 0 -15.117 -141.93 613.019)"/><path fill="#fff" fill-rule="evenodd" d="M-339.022 559.976a33.4 33.4 0 0 1 20.202 6.76 33.8 33.8 0 0 0-18.286-5.338c-18.762 0-33.972 15.21-33.972 33.971a33.8 33.8 0 0 0 4.853 17.506h-.242a33.4 33.4 0 0 1-6.123-19.331c0-18.539 15.03-33.568 33.568-33.568"/><path fill="#fff" fill-rule="evenodd" d="M-359.424 573.445h8.98v39.43h-8.98ZM-344.004 587.842h8.98v25.033h-8.98ZM-327.607 573.445h8.98v39.43h-8.98Z"/></g></g></g></svg>