<svg xmlns="http://www.w3.org/2000/svg" xmlns:xlink="http://www.w3.org/1999/xlink" width="154" height="99.2"><defs><path id="d" d="M.387.243.523.234A.28.28 0 0 0 .454.058.21.21 0 0 0 .291-.01a.21.21 0 0 0-.187.091.43.43 0 0 0-.065.252q0 .161.064.253a.22.22 0 0 0 .19.091Q.502.677.52.419L.386.409Q.381.558.294.558.248.558.221.51A.4.4 0 0 1 .193.324q0-.123.025-.169A.08.08 0 0 1 .293.109q.08 0 .094.134"/><path id="e" d="M.063.667h.215L.372.255l.106.412h.209V0H.549v.558L.413 0H.307L.182.558V0H.063z"/><path id="f" d="M-.028.667h.161L.227.423l.101.244h.143L.286.282V0H.139v.282z"/><path id="h" d="M.037.307h.199V.199H.037z"/><path id="i" d="M.063.667H.21V0H.063z"/><path id="j" d="M.051.493h.13V.426a.12.12 0 0 0 .12.077q.088 0 .106-.077.033.077.12.077A.14.14 0 0 0 .604.485a.1.1 0 0 0 .04-.048.4.4 0 0 0 .011-.115V0H.518v.308A.2.2 0 0 1 .51.38Q.502.397.475.397.443.397.433.375a.3.3 0 0 1-.01-.088V0H.286v.313a.2.2 0 0 1-.008.068Q.271.396.244.397.211.397.2.374A.2.2 0 0 1 .189.287V0H.051z"/><path id="k" d="M.051.493h.127V.42Q.218.5.29.5A.14.14 0 0 0 .403.439Q.448.379.448.255A.36.36 0 0 0 .404.059.14.14 0 0 0 .28-.007a.12.12 0 0 0-.094.044v-.204H.051zM.186.202q0-.07.012-.092Q.209.089.244.088a.05.05 0 0 1 .047.029q.015.028.015.137a.4.4 0 0 1-.013.123Q.279.41.248.409a.06.06 0 0 1-.044-.02Q.186.369.186.295z"/><path id="l" d="M.051.493h.121V.374Q.205.5.289.5L.312.497V.363L.289.365q-.1 0-.1-.153V0H.051z"/><path id="m" d="M.43.224H.171V.196Q.171.13.19.108A.06.06 0 0 1 .237.085Q.3.085.308.17L.43.162Q.397-.01.234-.01q-.1 0-.152.068a.3.3 0 0 0-.053.181q0 .129.056.196a.18.18 0 0 0 .148.068q.084 0 .141-.06T.43.224M.3.303l.001.014q0 .095-.065.095-.063 0-.064-.109z"/><path id="n" d="M.376.375.278.345Q.258.412.206.412.163.412.163.369q0-.024.016-.037a.3.3 0 0 1 .066-.03A1 1 0 0 0 .328.267.12.12 0 0 0 .373.221a.14.14 0 0 0 .018-.07.15.15 0 0 0-.05-.115Q.293-.01.204-.01q-.167 0-.185.147l.11.017Q.142.081.206.081q.055 0 .055.046a.05.05 0 0 1-.016.037.3.3 0 0 1-.063.027.24.24 0 0 0-.116.066.13.13 0 0 0-.032.089q0 .072.05.115a.2.2 0 0 0 .125.043q.132 0 .167-.129"/><path id="o" d="M.431.247q0-.257-.2-.257Q.03-.01.03.247q0 .256.201.256.2 0 .2-.256m-.142 0a.4.4 0 0 1-.013.127Q.262.407.231.407T.186.376A.4.4 0 0 1 .172.247q0-.09.012-.126.01-.035.047-.035.033 0 .045.035a.4.4 0 0 1 .013.126m.058.429L.391.644Q.341.569.279.569a.2.2 0 0 0-.062.018.2.2 0 0 1-.059.019Q.139.606.111.575L.069.608q.055.069.107.069A.2.2 0 0 0 .241.66.2.2 0 0 1 .3.641q.023 0 .047.035"/><path id="p" d="M.063.667H.21V.398h.16v.269h.146V0H.37v.273H.21V0H.063z"/><path id="q" d="M.523.334q0-.344-.242-.344-.12 0-.181.087a.45.45 0 0 0-.061.257q0 .343.242.343a.21.21 0 0 0 .18-.086.44.44 0 0 0 .062-.257m-.154 0a.5.5 0 0 1-.021.179Q.327.558.281.558T.214.513A.5.5 0 0 1 .193.334q0-.132.021-.179.02-.046.067-.046.045 0 .066.044.022.045.022.181"/><path id="r" d="M.063.667h.21q.06 0 .093-.006A.16.16 0 0 0 .484.563.24.24 0 0 0 .503.467q0-.125-.094-.175L.531 0H.372L.283.264H.21V0H.063zM.21.559V.372h.064Q.36.372.36.468q0 .033-.013.054a.07.07 0 0 1-.029.029.1.1 0 0 1-.05.008z"/><path id="s" d="M.022.667H.45V.563L.171.119h.288V0H.001v.102l.281.445h-.26z"/><path id="t" d="M.058.667H.22L.392.253v.414h.113V0H.374L.171.483V0H.058z"/><path id="u" d="M-.012.667h.416V.542H.268V0H.121v.542h-.133z"/><path id="v" d="M.181.667h.147L.519 0h-.15L.336.138H.148L.115 0H-.02zM.308.252.241.524.176.252z"/><path id="w" d="M.063.667H.21V.125h.214V0H.063z"/><path id="x" d="M.063.667h.192A.5.5 0 0 0 .39.652.15.15 0 0 0 .471.586.23.23 0 0 0 .504.458.26.26 0 0 0 .478.337.16.16 0 0 0 .405.268.4.4 0 0 0 .261.247H.21V0H.063zM.21.559V.361h.045q.06 0 .077.028A.13.13 0 0 1 .35.462a.1.1 0 0 1-.014.06Q.323.546.305.552a.2.2 0 0 1-.05.007z"/><path id="y" d="M-.014.667H.14L.243.159l.106.508h.125L.311-.004.147 0z"/><path id="z" d="M.063.667h.405V.552H.21V.398h.201V.283H.21V.119h.258V0H.063z"/><path id="A" d="M.471.522.35.475Q.324.558.255.558.222.558.204.539A.06.06 0 0 1 .185.497q0-.029.022-.045A.4.4 0 0 1 .3.407.6.6 0 0 0 .402.36.18.18 0 0 0 .484.203.2.2 0 0 0 .42.05a.24.24 0 0 0-.172-.06q-.181 0-.232.183L.144.21Q.167.11.251.109q.038 0 .062.02t.024.052A.06.06 0 0 1 .32.224a.2.2 0 0 1-.076.041 1 1 0 0 0-.115.05.2.2 0 0 0-.062.063.2.2 0 0 0-.024.094q0 .09.058.147.058.058.153.058.174 0 .217-.155"/><path id="B" d="M.523.334q0-.344-.242-.344-.12 0-.181.087a.45.45 0 0 0-.061.257q0 .343.242.343a.21.21 0 0 0 .18-.086.44.44 0 0 0 .062-.257m-.154 0a.5.5 0 0 1-.021.179Q.327.558.281.558T.214.513A.5.5 0 0 1 .193.334q0-.132.021-.179.02-.046.067-.046.045 0 .066.044.022.045.022.181m.03.499L.442.8Q.392.726.33.726a.2.2 0 0 0-.061.017.2.2 0 0 1-.06.019q-.02 0-.046-.031L.121.764q.054.07.107.07A.2.2 0 0 0 .292.817a.2.2 0 0 1 .06-.019q.021 0 .047.035"/><path id="C" d="M.063.667h.158q.102 0 .167-.028A.2.2 0 0 0 .49.537a.4.4 0 0 0 .039-.2.5.5 0 0 0-.024-.16.3.3 0 0 0-.061-.11.2.2 0 0 0-.086-.053A.5.5 0 0 0 .238 0H.063zM.21.552V.115h.024q.052 0 .079.019.028.02.045.068a.5.5 0 0 1 .016.141q0 .084-.018.131A.13.13 0 0 1 .31.536a.15.15 0 0 1-.076.016z"/><path id="D" d="M.297.356h.231V0H.466L.447.076A.18.18 0 0 0 .286-.01a.21.21 0 0 0-.18.089.4.4 0 0 0-.067.241q0 .165.066.261a.22.22 0 0 0 .194.096q.205 0 .229-.229L.397.427Q.383.557.302.558q-.05 0-.079-.049Q.193.461.193.326q0-.12.029-.168A.09.09 0 0 1 .307.109q.089 0 .09.132h-.1z"/><path id="E" d="M.063.667h.228a.4.4 0 0 0 .12-.013A.13.13 0 0 0 .48.598.2.2 0 0 0 .507.491Q.507.38.412.348.525.308.525.184q0-.065-.03-.109a.15.15 0 0 0-.076-.06A.4.4 0 0 0 .291 0H.063zM.204.398h.047q.07 0 .089.025a.1.1 0 0 1 .018.058q0 .03-.018.054T.262.559H.204zm0-.283h.071q.102 0 .102.087Q.377.25.351.27T.275.29H.204z"/><path id="F" d="M.189.534h-.14V.67h.14zM.05.493h.138V0H.05z"/><path id="G" d="M.47.574v-.09a.1.1 0 0 1-.029.004Q.397.488.388.444A.14.14 0 0 0 .425.345a.13.13 0 0 0-.05-.107.2.2 0 0 0-.129-.04.3.3 0 0 0-.064.008Q.15.188.15.166q0-.02.018-.025a1 1 0 0 1 .099-.01.6.6 0 0 0 .111-.015.12.12 0 0 0 .061-.042.13.13 0 0 0 .025-.083q0-.165-.241-.165-.202 0-.202.117 0 .066.081.092-.065.03-.065.086 0 .063.085.108Q.049.265.049.352q0 .074.05.112a.22.22 0 0 0 .135.039A.3.3 0 0 0 .34.482q.005.052.026.075.021.022.066.022A.1.1 0 0 0 .47.574M.283.35q0 .08-.044.079Q.213.429.202.41A.14.14 0 0 1 .191.346q0-.075.047-.074.024 0 .035.017.01.018.01.061M.178.022Q.134.001.134-.038q0-.05.114-.05.096 0 .097.052a.05.05 0 0 1-.011.031.05.05 0 0 1-.027.015L.239.016z"/><path id="H" d="m.071.645.134.004V.493h.091V.385H.205V.204q0-.051.002-.065A.04.04 0 0 1 .222.114q.012-.01.042-.01l.039.001V0a.4.4 0 0 0-.084-.01.16.16 0 0 0-.096.024.1.1 0 0 0-.042.06.5.5 0 0 0-.01.115v.196H.017v.108h.054z"/><path id="I" d="M.183.337.052.349a.16.16 0 0 0 .064.114.22.22 0 0 0 .136.041.2.2 0 0 0 .111-.027Q.405.45.416.415A.4.4 0 0 0 .427.306V.109Q.427.018.435 0H.308a.3.3 0 0 0-.007.076Q.256-.01.166-.01a.13.13 0 0 0-.094.034Q.036.059.036.125q0 .082.054.127.055.045.2.054v.019a.2.2 0 0 1-.01.068Q.27.413.241.412.188.412.183.337M.29.236A.2.2 0 0 1 .204.209Q.178.189.178.143.178.08.224.08.25.08.269.108.29.136.29.212z"/><path id="J" d="M.05.667h.138V0H.05z"/><path id="K" d="M.368.694.585.097A.2.2 0 0 1 .607.051.06.06 0 0 1 .636.033L.682.02l.001-.022L.564 0 .433-.002.431.02l.046.013.014.008q.004.004.004.013L.49.079.476.122.43.253H.194L.143.122.127.079A.1.1 0 0 1 .121.053q0-.007.005-.012L.14.034.185.021l.001-.023L.073 0l-.098-.002-.003.022.05.015Q.04.041.049.053a.2.2 0 0 1 .019.038l.25.596zM.212.297h.202L.318.566z"/><path id="L" d="M.279.415a.2.2 0 0 1-.062.007.14.14 0 0 1-.074-.017.06.06 0 0 1-.028-.049.06.06 0 0 1 .019-.047.2.2 0 0 1 .068-.034l.04-.013A.3.3 0 0 0 .341.209.1.1 0 0 0 .372.132.12.12 0 0 0 .319.025a.2.2 0 0 0-.133-.039q-.074 0-.152.031.017.063.027.124L.08.144.115.039A.2.2 0 0 1 .186.028q.046 0 .073.018.027.019.027.053a.06.06 0 0 1-.019.049.2.2 0 0 1-.058.031L.158.196a.2.2 0 0 0-.091.053.12.12 0 0 0-.025.077q0 .065.049.101a.2.2 0 0 0 .128.037.4.4 0 0 0 .135-.022A1 1 0 0 1 .329.325L.31.321z"/><path id="M" d="M.441.035a.3.3 0 0 0-.167-.049.24.24 0 0 0-.172.062.22.22 0 0 0-.064.17.26.26 0 0 0 .061.177.21.21 0 0 0 .164.069q.086 0 .134-.052A.2.2 0 0 0 .445.27L.443.242H.134q0-.105.049-.15.05-.045.154-.045.047 0 .101.009zM.348.283v.014q0 .07-.022.1T.259.426A.1.1 0 0 1 .17.384.2.2 0 0 1 .136.283z"/><path id="N" d="M.137.231q0-.092.034-.149A.11.11 0 0 1 .273.024q.063 0 .096.051a.3.3 0 0 1 .033.15.27.27 0 0 1-.035.147.11.11 0 0 1-.1.053.11.11 0 0 1-.096-.048Q.137.329.137.231m.365.004a.25.25 0 0 0-.068-.18.23.23 0 0 0-.17-.069A.22.22 0 0 0 .1.051.24.24 0 0 0 .038.22q0 .107.065.176a.23.23 0 0 0 .173.068A.22.22 0 0 0 .44.401.23.23 0 0 0 .502.235"/><path id="O" d="M.028.43Q.11.446.183.464L.188.461V.403q.09.061.177.061L.368.461.34.31.32.307a1 1 0 0 1-.026.066.04.04 0 0 1-.04.026.14.14 0 0 1-.066-.025V.163L.189.054q0-.014.012-.017L.266.019l.002-.021L.144 0 .03-.002.028.019l.057.016Q.097.04.097.05l.001.06v.167L.096.396.031.413z"/><path id="P" d="M.193.637A.06.06 0 0 0 .177.595.05.05 0 0 0 .136.578a.06.06 0 0 0-.04.015.06.06 0 0 0-.015.04q0 .027.016.042a.06.06 0 0 0 .042.016.06.06 0 0 0 .039-.014.05.05 0 0 0 .015-.04M.028.43q.086.016.159.034L.191.461.188.321V.133L.189.052A.02.02 0 0 1 .201.035L.258.019l.001-.021L.144 0 .03-.002.028.019l.057.016A.02.02 0 0 1 .097.05l.001.064v.163L.096.396.031.413z"/><path id="Q" d="M.301.221A.35.35 0 0 1 .155.2Q.116.18.116.129q0-.045.026-.065a.1.1 0 0 1 .07-.019A.2.2 0 0 1 .3.062zM.065.422a.4.4 0 0 0 .168.042q.075 0 .116-.039.042-.04.042-.113L.388.109l.001-.04A.1.1 0 0 1 .398.046Q.405.038.42.035A.1.1 0 0 1 .458.031L.46.012Q.439.004.409-.005a.2.2 0 0 0-.041-.008q-.047 0-.065.049a.23.23 0 0 0-.129-.05.16.16 0 0 0-.109.034Q.024.053.024.114q0 .075.067.111a.5.5 0 0 0 .21.036l.001.038q0 .054-.028.081Q.245.406.187.406A.5.5 0 0 1 .076.39z"/><path id="R" d="M.575.513.556.51.52.639a.5.5 0 0 1-.11.015A.23.23 0 0 1 .222.57.33.33 0 0 1 .154.354q0-.143.078-.228A.28.28 0 0 1 .448.041q.078 0 .164.03L.617.049a.38.38 0 0 0-.218-.067.35.35 0 0 0-.254.097.34.34 0 0 0-.097.253q0 .168.107.265a.4.4 0 0 0 .278.098.8.8 0 0 0 .169-.02L.606.671z"/><path id="S" d="M.028.43q.083.016.155.034L.188.461V.404a.3.3 0 0 0 .158.06.15.15 0 0 0 .109-.039Q.494.387.494.315V.143L.495.052A.02.02 0 0 1 .508.035L.562.019l.001-.021L.451 0 .344-.002.342.019l.049.014q.012.003.012.015l.001.031v.213q0 .06-.029.086Q.347.404.29.404A.2.2 0 0 1 .188.376V.162L.189.05Q.189.038.2.034L.251.019l.001-.021L.144 0 .03-.002.028.019l.058.016Q.096.04.097.05l.001.06v.167L.096.396.031.413z"/><path id="T" d="M.175.399.172.133q0-.05.015-.07T.245.044q.033 0 .088.009L.336.031a.35.35 0 0 0-.151-.043q-.054 0-.079.029Q.079.046.08.103l.003.299-.067.017-.003.02.075.006.034.119.049.014.005-.004-.001-.11V.446h.147V.399z"/><path id="U" d="M.301.221A.35.35 0 0 1 .155.2Q.116.18.116.129q0-.045.026-.065a.1.1 0 0 1 .07-.019A.2.2 0 0 1 .3.062zM.065.422a.4.4 0 0 0 .168.042q.075 0 .116-.039.042-.04.042-.113L.388.109l.001-.04A.1.1 0 0 1 .398.046Q.405.038.42.035A.1.1 0 0 1 .458.031L.46.012Q.439.004.409-.005a.2.2 0 0 0-.041-.008q-.047 0-.065.049a.23.23 0 0 0-.129-.05.16.16 0 0 0-.109.034Q.024.053.024.114q0 .075.067.111a.5.5 0 0 0 .21.036l.001.038q0 .054-.028.081Q.245.406.187.406A.5.5 0 0 1 .076.39zm.189.27h.098L.236.51H.203z"/><path id="V" d="M.176.042a.2.2 0 0 1 .08-.013q.083 0 .123.05Q.42.13.42.223a.2.2 0 0 1-.038.134Q.344.405.27.405A.2.2 0 0 1 .176.383zm.003.69a6 6 0 0 1-.003-.22V.413Q.254.464.32.464A.18.18 0 0 0 .465.402a.24.24 0 0 0 .053-.16A.25.25 0 0 0 .45.054a.26.26 0 0 0-.191-.067.6.6 0 0 0-.174.028l.001.159v.29L.084.666.018.685.015.701q.081.015.159.035z"/><path id="W" d="M.027.685.025.701q.087.017.159.035L.189.732.186.511V.193L.187.052Q.188.038.2.035L.254.019l.001-.021L.141 0 .028-.002.026.019l.055.016Q.094.039.094.05l.001.123v.201q0 .181-.002.292z"/><clipPath id="a"><path d="M0 99.2h154V0H0Z"/></clipPath><clipPath id="b"><path d="M-386 738.523H226.71V-120.8H-386Z"/></clipPath><clipPath id="c"><path d="M-386.283 738.806h614v-860h-614Z" clip-rule="evenodd"/></clipPath><clipPath id="X"><path d="M-37.258 135.827h226.771v171.49H-37.258Z" clip-rule="evenodd"/></clipPath><clipPath id="Y"><path d="M-37.258 86.043h236.944v250.971H-37.542V86.043Z" clip-rule="evenodd"/></clipPath><clipPath id="Z"><path d="M-37.258 531.25h226.771v171.491H-37.258Z" clip-rule="evenodd"/></clipPath><clipPath id="aa"><path d="M-37.258 481.467h236.944v250.97H-37.542v-250.97Z" clip-rule="evenodd"/></clipPath><clipPath id="ab"><path d="M-348.962 144.935h247.311V298.21h-247.311Z" clip-rule="evenodd"/></clipPath><clipPath id="ac"><path d="M-348.962 56.918h258.379V330.57h-258.663V56.918Z" clip-rule="evenodd"/></clipPath><clipPath id="ad"><path d="M-341.156 542.517h247.312v153.274h-247.312Z" clip-rule="evenodd"/></clipPath><clipPath id="ae"><path d="M-341.156 454.5h258.38v273.651h-258.663V454.5Z" clip-rule="evenodd"/></clipPath></defs><g clip-path="url(#a)"><g clip-path="url(#b)"><g clip-path="url(#c)"><use xlink:href="#d" fill="#231f20" data-text="C" transform="matrix(20 0 0 -20 -348.962 -6.206)"/><use xlink:href="#e" fill="#231f20" data-text="M" transform="matrix(20 0 0 -20 -338.062 -6.206)"/><use xlink:href="#f" fill="#231f20" data-text="Y" transform="matrix(20 0 0 -20 -323.062 -6.206)"/><use xlink:href="#d" fill="#231f20" data-text="C" transform="matrix(20 0 0 -20 -314.492 -6.206)"/><use xlink:href="#h" fill="#231f20" data-text="-" transform="matrix(20 0 0 -20 -299.852 -6.206)"/><use xlink:href="#i" fill="#231f20" data-text="I" transform="matrix(20 0 0 -20 -290.652 -6.206)"/><use xlink:href="#j" fill="#231f20" data-text="m" transform="matrix(20 0 0 -20 -285.192 -6.206)"/><use xlink:href="#k" fill="#231f20" data-text="p" transform="matrix(20 0 0 -20 -271.185 -6.206)"/><use xlink:href="#l" fill="#231f20" data-text="r" transform="matrix(20 0 0 -20 -261.645 -6.206)"/><use xlink:href="#m" fill="#231f20" data-text="e" transform="matrix(20 0 0 -20 -255.505 -6.206)"/><use xlink:href="#n" fill="#231f20" data-text="s" transform="matrix(20 0 0 -20 -246.305 -6.206)"/><use xlink:href="#n" fill="#231f20" data-text="s" transform="matrix(20 0 0 -20 -238.125 -6.206)"/><use xlink:href="#o" fill="#231f20" data-text="õ" transform="matrix(20 0 0 -20 -229.945 -6.206)"/><use xlink:href="#m" fill="#231f20" data-text="e" transform="matrix(20 0 0 -20 -220.745 -6.206)"/><use xlink:href="#n" fill="#231f20" data-text="s" transform="matrix(20 0 0 -20 -211.545 -6.206)"/><use xlink:href="#d" fill="#231f20" data-text="C" transform="matrix(20 0 0 -20 -79.67 -5.456)"/><use xlink:href="#e" fill="#231f20" data-text="M" transform="matrix(20 0 0 -20 -68.77 -5.456)"/><use xlink:href="#f" fill="#231f20" data-text="Y" transform="matrix(20 0 0 -20 -53.77 -5.456)"/><use xlink:href="#d" fill="#231f20" data-text="C" transform="matrix(20 0 0 -20 -45.2 -5.456)"/><use xlink:href="#h" fill="#231f20" data-text="-" transform="matrix(20 0 0 -20 -30.56 -5.456)"/><use xlink:href="#i" fill="#231f20" data-text="I" transform="matrix(20 0 0 -20 -21.36 -5.456)"/><use xlink:href="#j" fill="#231f20" data-text="m" transform="matrix(20 0 0 -20 -15.9 -5.456)"/><use xlink:href="#k" fill="#231f20" data-text="p" transform="matrix(20 0 0 -20 -1.894 -5.456)"/><use xlink:href="#l" fill="#231f20" data-text="r" transform="matrix(20 0 0 -20 7.646 -5.456)"/><use xlink:href="#m" fill="#231f20" data-text="e" transform="matrix(20 0 0 -20 13.786 -5.456)"/><use xlink:href="#n" fill="#231f20" data-text="s" transform="matrix(20 0 0 -20 22.986 -5.456)"/><use xlink:href="#n" fill="#231f20" data-text="s" transform="matrix(20 0 0 -20 31.166 -5.456)"/><use xlink:href="#o" fill="#231f20" data-text="õ" transform="matrix(20 0 0 -20 39.346 -5.456)"/><use xlink:href="#m" fill="#231f20" data-text="e" transform="matrix(20 0 0 -20 48.546 -5.456)"/><use xlink:href="#n" fill="#231f20" data-text="s" transform="matrix(20 0 0 -20 57.746 -5.456)"/><use xlink:href="#p" fill="#231f20" data-text="H" transform="matrix(12.966 0 0 -12.966 -348.962 -46.614)"/><use xlink:href="#q" fill="#231f20" data-text="O" transform="matrix(12.966 0 0 -12.966 -341.455 -46.614)"/><use xlink:href="#r" fill="#231f20" data-text="R" transform="matrix(12.966 0 0 -12.966 -334.168 -46.614)"/><use xlink:href="#i" fill="#231f20" data-text="I" transform="matrix(12.966 0 0 -12.966 -327.102 -46.614)"/><use xlink:href="#s" fill="#231f20" data-text="Z" transform="matrix(12.966 0 0 -12.966 -323.562 -46.614)"/><use xlink:href="#q" fill="#231f20" data-text="O" transform="matrix(12.966 0 0 -12.966 -317.597 -46.614)"/><use xlink:href="#t" fill="#231f20" data-text="N" transform="matrix(12.966 0 0 -12.966 -310.31 -46.614)"/><use xlink:href="#u" fill="#231f20" data-text="T" transform="matrix(12.966 0 0 -12.966 -303.024 -46.614)"/><use xlink:href="#v" fill="#231f20" data-text="A" transform="matrix(12.966 0 0 -12.966 -298.12 -46.614)"/><use xlink:href="#w" fill="#231f20" data-text="L" transform="matrix(12.966 0 0 -12.966 -291.494 -46.614)"/><use xlink:href="#d" fill="#231f20" data-text="C" transform="matrix(12.967 0 0 -12.967 -79.67 -46.614)"/><use xlink:href="#q" fill="#231f20" data-text="O" transform="matrix(12.967 0 0 -12.967 -72.604 -46.614)"/><use xlink:href="#e" fill="#231f20" data-text="M" transform="matrix(12.967 0 0 -12.967 -65.316 -46.614)"/><use xlink:href="#x" fill="#231f20" data-text="P" transform="matrix(12.967 0 0 -12.967 -55.591 -46.614)"/><use xlink:href="#v" fill="#231f20" data-text="A" transform="matrix(12.967 0 0 -12.967 -49.176 -46.614)"/><use xlink:href="#d" fill="#231f20" data-text="C" transform="matrix(12.967 0 0 -12.967 -42.676 -46.614)"/><use xlink:href="#u" fill="#231f20" data-text="T" transform="matrix(12.967 0 0 -12.967 -35.609 -46.614)"/><use xlink:href="#v" fill="#231f20" data-text="A" transform="matrix(12.967 0 0 -12.967 -30.697 -46.614)"/><use xlink:href="#y" fill="#231f20" data-text="V" transform="matrix(24 0 0 -24 -154.456 -67.468)"/><use xlink:href="#z" fill="#231f20" data-text="E" transform="matrix(24 0 0 -24 -143.416 -67.468)"/><use xlink:href="#r" fill="#231f20" data-text="R" transform="matrix(24 0 0 -24 -131.968 -67.468)"/><use xlink:href="#A" fill="#231f20" data-text="S" transform="matrix(24 0 0 -24 -118.888 -67.468)"/><use xlink:href="#B" fill="#231f20" data-text="Õ" transform="matrix(24 0 0 -24 -106.624 -67.468)"/><use xlink:href="#z" fill="#231f20" data-text="E" transform="matrix(24 0 0 -24 -93.136 -67.468)"/><use xlink:href="#A" fill="#231f20" data-text="S" transform="matrix(24 0 0 -24 -81.688 -67.468)"/><use xlink:href="#C" fill="#231f20" data-text="D" transform="matrix(24 0 0 -24 -64.936 -67.468)"/><use xlink:href="#v" fill="#231f20" data-text="A" transform="matrix(24 0 0 -24 -51.57 -67.468)"/><use xlink:href="#w" fill="#231f20" data-text="L" transform="matrix(24 0 0 -24 -34.817 -67.468)"/><use xlink:href="#q" fill="#231f20" data-text="O" transform="matrix(24 0 0 -24 -24.534 -67.468)"/><use xlink:href="#D" fill="#231f20" data-text="G" transform="matrix(24 0 0 -24 -11.046 -67.468)"/><use xlink:href="#q" fill="#231f20" data-text="O" transform="matrix(24 0 0 -24 2.874 -67.468)"/><use xlink:href="#r" fill="#030406" data-text="R" transform="matrix(20 0 0 -20 -348.962 378.511)"/><use xlink:href="#D" fill="#030406" data-text="G" transform="matrix(20 0 0 -20 -338.159 378.511)"/><use xlink:href="#E" fill="#030406" data-text="B" transform="matrix(20 0 0 -20 -326.559 378.511)"/><use xlink:href="#h" fill="#030406" data-text="-" transform="matrix(20 0 0 -20 -311.579 378.511)"/><use xlink:href="#C" fill="#030406" data-text="D" transform="matrix(20 0 0 -20 -302.379 378.511)"/><use xlink:href="#F" fill="#030406" data-text="i" transform="matrix(20 0 0 -20 -291.139 378.511)"/><use xlink:href="#G" fill="#030406" data-text="g" transform="matrix(20 0 0 -20 -286.379 378.511)"/><use xlink:href="#F" fill="#030406" data-text="i" transform="matrix(20 0 0 -20 -277.179 378.511)"/><use xlink:href="#H" fill="#030406" data-text="t" transform="matrix(20 0 0 -20 -272.419 378.511)"/><use xlink:href="#I" fill="#030406" data-text="a" transform="matrix(20 0 0 -20 -266.132 378.511)"/><use xlink:href="#J" fill="#030406" data-text="l" transform="matrix(20 0 0 -20 -256.592 378.511)"/><use xlink:href="#r" fill="#030406" data-text="R" transform="matrix(20 0 0 -20 -79.67 378.511)"/><use xlink:href="#D" fill="#030406" data-text="G" transform="matrix(20 0 0 -20 -68.868 378.511)"/><use xlink:href="#E" fill="#030406" data-text="B" transform="matrix(20 0 0 -20 -57.268 378.511)"/><use xlink:href="#h" fill="#030406" data-text="-" transform="matrix(20 0 0 -20 -42.288 378.511)"/><use xlink:href="#C" fill="#030406" data-text="D" transform="matrix(20 0 0 -20 -33.088 378.511)"/><use xlink:href="#F" fill="#030406" data-text="i" transform="matrix(20 0 0 -20 -21.848 378.511)"/><use xlink:href="#G" fill="#030406" data-text="g" transform="matrix(20 0 0 -20 -17.088 378.511)"/><use xlink:href="#F" fill="#030406" data-text="i" transform="matrix(20 0 0 -20 -7.888 378.511)"/><use xlink:href="#H" fill="#030406" data-text="t" transform="matrix(20 0 0 -20 -3.128 378.511)"/><use xlink:href="#I" fill="#030406" data-text="a" transform="matrix(20 0 0 -20 3.16 378.511)"/><use xlink:href="#J" fill="#030406" data-text="l" transform="matrix(20 0 0 -20 12.7 378.511)"/><path fill="#111b21" fill-rule="evenodd" d="M76.652-.162c8.075 0 15.524 2.68 21.508 7.196a36 36 0 0 0-19.47-5.682c-19.974 0-36.168 16.193-36.168 36.168a36 36 0 0 0 5.167 18.637h-.257a35.58 35.58 0 0 1-6.519-20.58c0-19.738 16-35.74 35.739-35.74"/><path fill="#111b21" fill-rule="evenodd" d="M54.93 14.177h9.56v41.98h-9.56ZM71.348 29.505h9.56v26.652h-9.56ZM88.805 14.177h9.56v41.98h-9.56Z"/><use xlink:href="#z" fill="#111b21" data-text="E" transform="matrix(29.806 0 0 -29.806 5.724 79.504)"/><use xlink:href="#t" fill="#111b21" data-text="N" transform="matrix(29.806 0 0 -29.806 19.941 79.504)"/><use xlink:href="#u" fill="#111b21" data-text="T" transform="matrix(29.806 0 0 -29.806 36.692 79.504)"/><use xlink:href="#z" fill="#111b21" data-text="E" transform="matrix(29.806 0 0 -29.806 48.376 79.504)"/><use xlink:href="#r" fill="#111b21" data-text="R" transform="matrix(29.806 0 0 -29.806 62.594 79.504)"/><use xlink:href="#x" fill="#111b21" data-text="P" transform="matrix(29.806 0 0 -29.806 78.838 79.504)"/><use xlink:href="#r" fill="#111b21" data-text="R" transform="matrix(29.806 0 0 -29.806 94.069 79.504)"/><use xlink:href="#i" fill="#111b21" data-text="I" transform="matrix(29.806 0 0 -29.806 110.313 79.504)"/><use xlink:href="#A" fill="#111b21" data-text="S" transform="matrix(29.806 0 0 -29.806 118.45 79.504)"/><use xlink:href="#z" fill="#111b21" data-text="E" transform="matrix(29.806 0 0 -29.806 133.681 79.504)"/><use xlink:href="#K" fill="#111b21" data-text="A" transform="matrix(13.005 0 0 -13.005 6.085 92.44)"/><use xlink:href="#L" fill="#111b21" data-text="s" transform="matrix(13.005 0 0 -13.005 16.552 92.44)"/><use xlink:href="#L" fill="#111b21" data-text="s" transform="matrix(13.005 0 0 -13.005 23.514 92.44)"/><use xlink:href="#M" fill="#111b21" data-text="e" transform="matrix(13.005 0 0 -13.005 30.476 92.44)"/><use xlink:href="#L" fill="#111b21" data-text="s" transform="matrix(13.005 0 0 -13.005 38.403 92.44)"/><use xlink:href="#L" fill="#111b21" data-text="s" transform="matrix(13.005 0 0 -13.005 45.365 92.44)"/><use xlink:href="#N" fill="#111b21" data-text="o" transform="matrix(13.005 0 0 -13.005 52.327 92.44)"/><use xlink:href="#O" fill="#111b21" data-text="r" transform="matrix(13.005 0 0 -13.005 61.053 92.44)"/><use xlink:href="#P" fill="#111b21" data-text="i" transform="matrix(13.005 0 0 -13.005 67.735 92.44)"/><use xlink:href="#Q" fill="#111b21" data-text="a" transform="matrix(13.005 0 0 -13.005 73.115 92.44)"/><use xlink:href="#R" fill="#111b21" data-text="C" transform="matrix(13.005 0 0 -13.005 87.76 92.742)"/><use xlink:href="#N" fill="#111b21" data-text="o" transform="matrix(13.005 0 0 -13.005 97.77 92.742)"/><use xlink:href="#S" fill="#111b21" data-text="n" transform="matrix(13.005 0 0 -13.005 106.496 92.742)"/><use xlink:href="#T" fill="#111b21" data-text="t" transform="matrix(13.005 0 0 -13.005 115.762 92.742)"/><use xlink:href="#U" fill="#111b21" data-text="á" transform="matrix(13.005 0 0 -13.005 122.05 92.742)"/><use xlink:href="#V" fill="#111b21" data-text="b" transform="matrix(13.005 0 0 -13.005 129.99 92.742)"/><use xlink:href="#P" fill="#111b21" data-text="i" transform="matrix(13.005 0 0 -13.005 138.933 92.742)"/><use xlink:href="#W" fill="#111b21" data-text="l" transform="matrix(13.005 0 0 -13.005 144.312 92.742)"/><path fill="#030406" fill-rule="evenodd" d="M76.652 395.261c8.075 0 15.524 2.68 21.508 7.196a36 36 0 0 0-19.47-5.682c-19.974 0-36.168 16.193-36.168 36.168a36 36 0 0 0 5.167 18.637h-.257A35.58 35.58 0 0 1 40.913 431c0-19.738 16-35.739 35.739-35.739"/><path fill="#030406" fill-rule="evenodd" d="M54.93 409.6h9.56v41.98h-9.56ZM71.348 424.928h9.56v26.652h-9.56ZM88.805 409.6h9.56v41.98h-9.56Z"/><use xlink:href="#z" fill="#030406" data-text="E" transform="matrix(29.806 0 0 -29.806 5.724 474.927)"/><use xlink:href="#t" fill="#030406" data-text="N" transform="matrix(29.806 0 0 -29.806 19.941 474.927)"/><use xlink:href="#u" fill="#030406" data-text="T" transform="matrix(29.806 0 0 -29.806 36.692 474.927)"/><use xlink:href="#z" fill="#030406" data-text="E" transform="matrix(29.806 0 0 -29.806 48.376 474.927)"/><use xlink:href="#r" fill="#030406" data-text="R" transform="matrix(29.806 0 0 -29.806 62.594 474.927)"/><use xlink:href="#x" fill="#030406" data-text="P" transform="matrix(29.806 0 0 -29.806 78.838 474.927)"/><use xlink:href="#r" fill="#030406" data-text="R" transform="matrix(29.806 0 0 -29.806 94.069 474.927)"/><use xlink:href="#i" fill="#030406" data-text="I" transform="matrix(29.806 0 0 -29.806 110.313 474.927)"/><use xlink:href="#A" fill="#030406" data-text="S" transform="matrix(29.806 0 0 -29.806 118.45 474.927)"/><use xlink:href="#z" fill="#030406" data-text="E" transform="matrix(29.806 0 0 -29.806 133.681 474.927)"/><use xlink:href="#K" fill="#030406" data-text="A" transform="matrix(13.005 0 0 -13.005 6.085 487.863)"/><use xlink:href="#L" fill="#030406" data-text="s" transform="matrix(13.005 0 0 -13.005 16.552 487.863)"/><use xlink:href="#L" fill="#030406" data-text="s" transform="matrix(13.005 0 0 -13.005 23.514 487.863)"/><use xlink:href="#M" fill="#030406" data-text="e" transform="matrix(13.005 0 0 -13.005 30.476 487.863)"/><use xlink:href="#L" fill="#030406" data-text="s" transform="matrix(13.005 0 0 -13.005 38.403 487.863)"/><use xlink:href="#L" fill="#030406" data-text="s" transform="matrix(13.005 0 0 -13.005 45.365 487.863)"/><use xlink:href="#N" fill="#030406" data-text="o" transform="matrix(13.005 0 0 -13.005 52.327 487.863)"/><use xlink:href="#O" fill="#030406" data-text="r" transform="matrix(13.005 0 0 -13.005 61.053 487.863)"/><use xlink:href="#P" fill="#030406" data-text="i" transform="matrix(13.005 0 0 -13.005 67.735 487.863)"/><use xlink:href="#Q" fill="#030406" data-text="a" transform="matrix(13.005 0 0 -13.005 73.115 487.863)"/><use xlink:href="#R" fill="#030406" data-text="C" transform="matrix(13.005 0 0 -13.005 87.76 488.165)"/><use xlink:href="#N" fill="#030406" data-text="o" transform="matrix(13.005 0 0 -13.005 97.77 488.165)"/><use xlink:href="#S" fill="#030406" data-text="n" transform="matrix(13.005 0 0 -13.005 106.496 488.165)"/><use xlink:href="#T" fill="#030406" data-text="t" transform="matrix(13.005 0 0 -13.005 115.762 488.165)"/><use xlink:href="#U" fill="#030406" data-text="á" transform="matrix(13.005 0 0 -13.005 122.05 488.165)"/><use xlink:href="#V" fill="#030406" data-text="b" transform="matrix(13.005 0 0 -13.005 129.99 488.165)"/><use xlink:href="#P" fill="#030406" data-text="i" transform="matrix(13.005 0 0 -13.005 138.933 488.165)"/><use xlink:href="#W" fill="#030406" data-text="l" transform="matrix(13.005 0 0 -13.005 144.312 488.165)"/><path fill="#fff" fill-rule="evenodd" d="M76.654 145.049c8.109 0 15.59 2.69 21.6 7.226A36.15 36.15 0 0 0 78.7 146.57c-20.06 0-36.32 16.261-36.32 36.32 0 6.847 1.895 13.25 5.188 18.716h-.259a35.72 35.72 0 0 1-6.546-20.667c0-19.821 16.068-35.89 35.89-35.89"/><path fill="#fff" fill-rule="evenodd" d="M54.84 159.449h9.6v42.156h-9.6ZM71.327 174.841h9.6v26.764h-9.6ZM88.858 159.449h9.6v42.156h-9.6Z"/><use xlink:href="#z" fill="#fff" data-text="E" transform="matrix(29.932 0 0 -29.932 5.424 225.051)"/><use xlink:href="#t" fill="#fff" data-text="N" transform="matrix(29.932 0 0 -29.932 19.701 225.051)"/><use xlink:href="#u" fill="#fff" data-text="T" transform="matrix(29.932 0 0 -29.932 36.523 225.051)"/><use xlink:href="#z" fill="#fff" data-text="E" transform="matrix(29.932 0 0 -29.932 48.256 225.051)"/><use xlink:href="#r" fill="#fff" data-text="R" transform="matrix(29.932 0 0 -29.932 62.534 225.051)"/><use xlink:href="#x" fill="#fff" data-text="P" transform="matrix(29.932 0 0 -29.932 78.847 225.051)"/><use xlink:href="#r" fill="#fff" data-text="R" transform="matrix(29.932 0 0 -29.932 94.142 225.051)"/><use xlink:href="#i" fill="#fff" data-text="I" transform="matrix(29.932 0 0 -29.932 110.455 225.051)"/><use xlink:href="#A" fill="#fff" data-text="S" transform="matrix(29.932 0 0 -29.932 118.627 225.051)"/><use xlink:href="#z" fill="#fff" data-text="E" transform="matrix(29.932 0 0 -29.932 133.922 225.051)"/><use xlink:href="#K" fill="#fff" data-text="A" transform="matrix(13.059 0 0 -13.059 5.787 238.041)"/><use xlink:href="#L" fill="#fff" data-text="s" transform="matrix(13.059 0 0 -13.059 16.298 238.041)"/><use xlink:href="#L" fill="#fff" data-text="s" transform="matrix(13.059 0 0 -13.059 23.289 238.041)"/><use xlink:href="#M" fill="#fff" data-text="e" transform="matrix(13.059 0 0 -13.059 30.28 238.041)"/><use xlink:href="#L" fill="#fff" data-text="s" transform="matrix(13.059 0 0 -13.059 38.24 238.041)"/><use xlink:href="#L" fill="#fff" data-text="s" transform="matrix(13.059 0 0 -13.059 45.23 238.041)"/><use xlink:href="#N" fill="#fff" data-text="o" transform="matrix(13.059 0 0 -13.059 52.221 238.041)"/><use xlink:href="#O" fill="#fff" data-text="r" transform="matrix(13.059 0 0 -13.059 60.984 238.041)"/><use xlink:href="#P" fill="#fff" data-text="i" transform="matrix(13.059 0 0 -13.059 67.694 238.041)"/><use xlink:href="#Q" fill="#fff" data-text="a" transform="matrix(13.059 0 0 -13.059 73.096 238.041)"/><use xlink:href="#R" fill="#fff" data-text="C" transform="matrix(13.059 0 0 -13.059 87.806 238.344)"/><use xlink:href="#N" fill="#fff" data-text="o" transform="matrix(13.059 0 0 -13.059 97.857 238.344)"/><use xlink:href="#S" fill="#fff" data-text="n" transform="matrix(13.059 0 0 -13.059 106.62 238.344)"/><use xlink:href="#T" fill="#fff" data-text="t" transform="matrix(13.059 0 0 -13.059 115.925 238.344)"/><use xlink:href="#U" fill="#fff" data-text="á" transform="matrix(13.059 0 0 -13.059 122.239 238.344)"/><use xlink:href="#V" fill="#fff" data-text="b" transform="matrix(13.059 0 0 -13.059 130.212 238.344)"/><use xlink:href="#P" fill="#fff" data-text="i" transform="matrix(13.059 0 0 -13.059 139.192 238.344)"/><use xlink:href="#W" fill="#fff" data-text="l" transform="matrix(13.059 0 0 -13.059 144.595 238.344)"/><path fill="#fff" fill-rule="evenodd" d="M76.654 540.472c8.109 0 15.59 2.69 21.6 7.226a36.15 36.15 0 0 0-19.553-5.706c-20.06 0-36.32 16.261-36.32 36.32 0 6.847 1.895 13.25 5.188 18.716h-.259a35.72 35.72 0 0 1-6.546-20.667c0-19.821 16.068-35.89 35.89-35.89"/><path fill="#fff" fill-rule="evenodd" d="M54.84 554.872h9.6v42.156h-9.6ZM71.327 570.264h9.6v26.764h-9.6ZM88.858 554.872h9.6v42.156h-9.6Z"/><use xlink:href="#z" fill="#fff" data-text="E" transform="matrix(29.932 0 0 -29.932 5.424 620.474)"/><use xlink:href="#t" fill="#fff" data-text="N" transform="matrix(29.932 0 0 -29.932 19.701 620.474)"/><use xlink:href="#u" fill="#fff" data-text="T" transform="matrix(29.932 0 0 -29.932 36.523 620.474)"/><use xlink:href="#z" fill="#fff" data-text="E" transform="matrix(29.932 0 0 -29.932 48.256 620.474)"/><use xlink:href="#r" fill="#fff" data-text="R" transform="matrix(29.932 0 0 -29.932 62.534 620.474)"/><use xlink:href="#x" fill="#fff" data-text="P" transform="matrix(29.932 0 0 -29.932 78.847 620.474)"/><use xlink:href="#r" fill="#fff" data-text="R" transform="matrix(29.932 0 0 -29.932 94.142 620.474)"/><use xlink:href="#i" fill="#fff" data-text="I" transform="matrix(29.932 0 0 -29.932 110.455 620.474)"/><use xlink:href="#A" fill="#fff" data-text="S" transform="matrix(29.932 0 0 -29.932 118.627 620.474)"/><use xlink:href="#z" fill="#fff" data-text="E" transform="matrix(29.932 0 0 -29.932 133.922 620.474)"/><use xlink:href="#K" fill="#fff" data-text="A" transform="matrix(13.059 0 0 -13.059 5.787 633.464)"/><use xlink:href="#L" fill="#fff" data-text="s" transform="matrix(13.059 0 0 -13.059 16.298 633.464)"/><use xlink:href="#L" fill="#fff" data-text="s" transform="matrix(13.059 0 0 -13.059 23.289 633.464)"/><use xlink:href="#M" fill="#fff" data-text="e" transform="matrix(13.059 0 0 -13.059 30.28 633.464)"/><use xlink:href="#L" fill="#fff" data-text="s" transform="matrix(13.059 0 0 -13.059 38.24 633.464)"/><use xlink:href="#L" fill="#fff" data-text="s" transform="matrix(13.059 0 0 -13.059 45.23 633.464)"/><use xlink:href="#N" fill="#fff" data-text="o" transform="matrix(13.059 0 0 -13.059 52.221 633.464)"/><use xlink:href="#O" fill="#fff" data-text="r" transform="matrix(13.059 0 0 -13.059 60.984 633.464)"/><use xlink:href="#P" fill="#fff" data-text="i" transform="matrix(13.059 0 0 -13.059 67.694 633.464)"/><use xlink:href="#Q" fill="#fff" data-text="a" transform="matrix(13.059 0 0 -13.059 73.096 633.464)"/><use xlink:href="#R" fill="#fff" data-text="C" transform="matrix(13.059 0 0 -13.059 87.806 633.768)"/><use xlink:href="#N" fill="#fff" data-text="o" transform="matrix(13.059 0 0 -13.059 97.857 633.768)"/><use xlink:href="#S" fill="#fff" data-text="n" transform="matrix(13.059 0 0 -13.059 106.62 633.768)"/><use xlink:href="#T" fill="#fff" data-text="t" transform="matrix(13.059 0 0 -13.059 115.925 633.768)"/><use xlink:href="#U" fill="#fff" data-text="á" transform="matrix(13.059 0 0 -13.059 122.239 633.768)"/><use xlink:href="#V" fill="#fff" data-text="b" transform="matrix(13.059 0 0 -13.059 130.212 633.768)"/><use xlink:href="#P" fill="#fff" data-text="i" transform="matrix(13.059 0 0 -13.059 139.192 633.768)"/><use xlink:href="#W" fill="#fff" data-text="l" transform="matrix(13.059 0 0 -13.059 144.595 633.768)"/><use xlink:href="#z" fill="#111b21" data-text="E" transform="matrix(35.915 0 0 -35.915 -279.034 57.127)"/><use xlink:href="#t" fill="#111b21" data-text="N" transform="matrix(35.915 0 0 -35.915 -261.902 57.127)"/><use xlink:href="#u" fill="#111b21" data-text="T" transform="matrix(35.915 0 0 -35.915 -241.718 57.127)"/><use xlink:href="#z" fill="#111b21" data-text="E" transform="matrix(35.915 0 0 -35.915 -227.64 57.127)"/><use xlink:href="#r" fill="#111b21" data-text="R" transform="matrix(35.915 0 0 -35.915 -210.508 57.127)"/><use xlink:href="#x" fill="#111b21" data-text="P" transform="matrix(35.915 0 0 -35.915 -190.934 57.127)"/><use xlink:href="#r" fill="#111b21" data-text="R" transform="matrix(35.915 0 0 -35.915 -172.582 57.127)"/><use xlink:href="#i" fill="#111b21" data-text="I" transform="matrix(35.915 0 0 -35.915 -153.008 57.127)"/><use xlink:href="#A" fill="#111b21" data-text="S" transform="matrix(35.915 0 0 -35.915 -143.203 57.127)"/><use xlink:href="#z" fill="#111b21" data-text="E" transform="matrix(35.915 0 0 -35.915 -124.85 57.127)"/><use xlink:href="#K" fill="#111b21" data-text="A" transform="matrix(15.117 0 0 -15.117 -278.613 72.442)"/><use xlink:href="#L" fill="#111b21" data-text="s" transform="matrix(15.117 0 0 -15.117 -266.143 72.442)"/><use xlink:href="#L" fill="#111b21" data-text="s" transform="matrix(15.117 0 0 -15.117 -257.747 72.442)"/><use xlink:href="#M" fill="#111b21" data-text="e" transform="matrix(15.117 0 0 -15.117 -249.35 72.442)"/><use xlink:href="#L" fill="#111b21" data-text="s" transform="matrix(15.117 0 0 -15.117 -239.834 72.442)"/><use xlink:href="#L" fill="#111b21" data-text="s" transform="matrix(15.117 0 0 -15.117 -231.437 72.442)"/><use xlink:href="#N" fill="#111b21" data-text="o" transform="matrix(15.117 0 0 -15.117 -223.041 72.442)"/><use xlink:href="#O" fill="#111b21" data-text="r" transform="matrix(15.117 0 0 -15.117 -212.595 72.442)"/><use xlink:href="#P" fill="#111b21" data-text="i" transform="matrix(15.117 0 0 -15.117 -204.524 72.442)"/><use xlink:href="#Q" fill="#111b21" data-text="a" transform="matrix(15.117 0 0 -15.117 -197.967 72.442)"/><use xlink:href="#R" fill="#111b21" data-text="C" transform="matrix(15.117 0 0 -15.117 -179.761 72.793)"/><use xlink:href="#N" fill="#111b21" data-text="o" transform="matrix(15.117 0 0 -15.117 -167.823 72.793)"/><use xlink:href="#S" fill="#111b21" data-text="n" transform="matrix(15.117 0 0 -15.117 -157.376 72.793)"/><use xlink:href="#T" fill="#111b21" data-text="t" transform="matrix(15.117 0 0 -15.117 -146.302 72.793)"/><use xlink:href="#U" fill="#111b21" data-text="á" transform="matrix(15.117 0 0 -15.117 -138.69 72.793)"/><use xlink:href="#V" fill="#111b21" data-text="b" transform="matrix(15.117 0 0 -15.117 -129.157 72.793)"/><use xlink:href="#P" fill="#111b21" data-text="i" transform="matrix(15.117 0 0 -15.117 -118.458 72.793)"/><use xlink:href="#W" fill="#111b21" data-text="l" transform="matrix(15.117 0 0 -15.117 -111.901 72.793)"/><path fill="#111b21" fill-rule="evenodd" d="M-308.984 19.75a33.42 33.42 0 0 1 20.202 6.76 33.8 33.8 0 0 0-18.286-5.338c-18.762 0-33.972 15.21-33.972 33.971a33.8 33.8 0 0 0 4.853 17.505h-.242a33.4 33.4 0 0 1-6.123-19.33c0-18.54 15.03-33.568 33.568-33.568"/><path fill="#111b21" fill-rule="evenodd" d="M-329.386 33.219h8.98v39.43h-8.98ZM-313.965 47.615h8.979v25.033h-8.98ZM-297.569 33.219h8.98v39.43h-8.98Z"/><use xlink:href="#z" fill="#030406" data-text="E" transform="matrix(35.915 0 0 -35.915 -271.218 454.71)"/><use xlink:href="#t" fill="#030406" data-text="N" transform="matrix(35.915 0 0 -35.915 -254.086 454.71)"/><use xlink:href="#u" fill="#030406" data-text="T" transform="matrix(35.915 0 0 -35.915 -233.902 454.71)"/><use xlink:href="#z" fill="#030406" data-text="E" transform="matrix(35.915 0 0 -35.915 -219.823 454.71)"/><use xlink:href="#r" fill="#030406" data-text="R" transform="matrix(35.915 0 0 -35.915 -202.692 454.71)"/><use xlink:href="#x" fill="#030406" data-text="P" transform="matrix(35.915 0 0 -35.915 -183.118 454.71)"/><use xlink:href="#r" fill="#030406" data-text="R" transform="matrix(35.915 0 0 -35.915 -164.766 454.71)"/><use xlink:href="#i" fill="#030406" data-text="I" transform="matrix(35.915 0 0 -35.915 -145.192 454.71)"/><use xlink:href="#A" fill="#030406" data-text="S" transform="matrix(35.915 0 0 -35.915 -135.387 454.71)"/><use xlink:href="#z" fill="#030406" data-text="E" transform="matrix(35.915 0 0 -35.915 -117.035 454.71)"/><use xlink:href="#K" fill="#030406" data-text="A" transform="matrix(15.117 0 0 -15.117 -270.797 470.024)"/><use xlink:href="#L" fill="#030406" data-text="s" transform="matrix(15.117 0 0 -15.117 -258.327 470.024)"/><use xlink:href="#L" fill="#030406" data-text="s" transform="matrix(15.117 0 0 -15.117 -249.931 470.024)"/><use xlink:href="#M" fill="#030406" data-text="e" transform="matrix(15.117 0 0 -15.117 -241.535 470.024)"/><use xlink:href="#L" fill="#030406" data-text="s" transform="matrix(15.117 0 0 -15.117 -232.018 470.024)"/><use xlink:href="#L" fill="#030406" data-text="s" transform="matrix(15.117 0 0 -15.117 -223.622 470.024)"/><use xlink:href="#N" fill="#030406" data-text="o" transform="matrix(15.117 0 0 -15.117 -215.226 470.024)"/><use xlink:href="#O" fill="#030406" data-text="r" transform="matrix(15.117 0 0 -15.117 -204.78 470.024)"/><use xlink:href="#P" fill="#030406" data-text="i" transform="matrix(15.117 0 0 -15.117 -196.708 470.024)"/><use xlink:href="#Q" fill="#030406" data-text="a" transform="matrix(15.117 0 0 -15.117 -190.151 470.024)"/><use xlink:href="#R" fill="#030406" data-text="C" transform="matrix(15.117 0 0 -15.117 -171.945 470.375)"/><use xlink:href="#N" fill="#030406" data-text="o" transform="matrix(15.117 0 0 -15.117 -160.007 470.375)"/><use xlink:href="#S" fill="#030406" data-text="n" transform="matrix(15.117 0 0 -15.117 -149.56 470.375)"/><use xlink:href="#T" fill="#030406" data-text="t" transform="matrix(15.117 0 0 -15.117 -138.486 470.375)"/><use xlink:href="#U" fill="#030406" data-text="á" transform="matrix(15.117 0 0 -15.117 -130.873 470.375)"/><use xlink:href="#V" fill="#030406" data-text="b" transform="matrix(15.117 0 0 -15.117 -121.341 470.375)"/><use xlink:href="#P" fill="#030406" data-text="i" transform="matrix(15.117 0 0 -15.117 -110.642 470.375)"/><use xlink:href="#W" fill="#030406" data-text="l" transform="matrix(15.117 0 0 -15.117 -104.085 470.375)"/><path fill="#030406" fill-rule="evenodd" d="M-301.177 417.332a33.4 33.4 0 0 1 20.202 6.76 33.8 33.8 0 0 0-18.287-5.338c-18.762 0-33.971 15.21-33.971 33.971a33.8 33.8 0 0 0 4.853 17.505h-.243a33.4 33.4 0 0 1-6.122-19.33c0-18.54 15.029-33.568 33.568-33.568"/><path fill="#030406" fill-rule="evenodd" d="M-321.58 430.8h8.98v39.43h-8.98ZM-306.159 445.197h8.98v25.033h-8.98ZM-289.762 430.8h8.979v39.43h-8.98Z"/><use xlink:href="#z" fill="#fff" data-text="E" transform="matrix(35.915 0 0 -35.915 -278.878 197.971)"/><use xlink:href="#t" fill="#fff" data-text="N" transform="matrix(35.915 0 0 -35.915 -261.747 197.971)"/><use xlink:href="#u" fill="#fff" data-text="T" transform="matrix(35.915 0 0 -35.915 -241.562 197.971)"/><use xlink:href="#z" fill="#fff" data-text="E" transform="matrix(35.915 0 0 -35.915 -227.484 197.971)"/><use xlink:href="#r" fill="#fff" data-text="R" transform="matrix(35.915 0 0 -35.915 -210.352 197.971)"/><use xlink:href="#x" fill="#fff" data-text="P" transform="matrix(35.915 0 0 -35.915 -190.779 197.971)"/><use xlink:href="#r" fill="#fff" data-text="R" transform="matrix(35.915 0 0 -35.915 -172.426 197.971)"/><use xlink:href="#i" fill="#fff" data-text="I" transform="matrix(35.915 0 0 -35.915 -152.852 197.971)"/><use xlink:href="#A" fill="#fff" data-text="S" transform="matrix(35.915 0 0 -35.915 -143.048 197.971)"/><use xlink:href="#z" fill="#fff" data-text="E" transform="matrix(35.915 0 0 -35.915 -124.695 197.971)"/><use xlink:href="#K" fill="#fff" data-text="A" transform="matrix(15.117 0 0 -15.117 -278.458 213.286)"/><use xlink:href="#L" fill="#fff" data-text="s" transform="matrix(15.117 0 0 -15.117 -265.988 213.286)"/><use xlink:href="#L" fill="#fff" data-text="s" transform="matrix(15.117 0 0 -15.117 -257.592 213.286)"/><use xlink:href="#M" fill="#fff" data-text="e" transform="matrix(15.117 0 0 -15.117 -249.195 213.286)"/><use xlink:href="#L" fill="#fff" data-text="s" transform="matrix(15.117 0 0 -15.117 -239.679 213.286)"/><use xlink:href="#L" fill="#fff" data-text="s" transform="matrix(15.117 0 0 -15.117 -231.283 213.286)"/><use xlink:href="#N" fill="#fff" data-text="o" transform="matrix(15.117 0 0 -15.117 -222.887 213.286)"/><use xlink:href="#O" fill="#fff" data-text="r" transform="matrix(15.117 0 0 -15.117 -212.44 213.286)"/><use xlink:href="#P" fill="#fff" data-text="i" transform="matrix(15.117 0 0 -15.117 -204.369 213.286)"/><use xlink:href="#Q" fill="#fff" data-text="a" transform="matrix(15.117 0 0 -15.117 -197.812 213.286)"/><use xlink:href="#R" fill="#fff" data-text="C" transform="matrix(15.117 0 0 -15.117 -179.606 213.637)"/><use xlink:href="#N" fill="#fff" data-text="o" transform="matrix(15.117 0 0 -15.117 -167.667 213.637)"/><use xlink:href="#S" fill="#fff" data-text="n" transform="matrix(15.117 0 0 -15.117 -157.22 213.637)"/><use xlink:href="#T" fill="#fff" data-text="t" transform="matrix(15.117 0 0 -15.117 -146.146 213.637)"/><use xlink:href="#U" fill="#fff" data-text="á" transform="matrix(15.117 0 0 -15.117 -138.534 213.637)"/><use xlink:href="#V" fill="#fff" data-text="b" transform="matrix(15.117 0 0 -15.117 -129.002 213.637)"/><use xlink:href="#P" fill="#fff" data-text="i" transform="matrix(15.117 0 0 -15.117 -118.302 213.637)"/><use xlink:href="#W" fill="#fff" data-text="l" transform="matrix(15.117 0 0 -15.117 -111.745 213.637)"/><path fill="#fff" fill-rule="evenodd" d="M-308.828 160.594a33.42 33.42 0 0 1 20.202 6.76 33.8 33.8 0 0 0-18.287-5.338c-18.762 0-33.972 15.21-33.972 33.971a33.8 33.8 0 0 0 4.853 17.505h-.242a33.4 33.4 0 0 1-6.122-19.33c0-18.539 15.029-33.568 33.568-33.568"/><path fill="#fff" fill-rule="evenodd" d="M-329.23 174.063h8.979v39.43h-8.98ZM-313.81 188.46h8.98v25.032h-8.98ZM-297.414 174.063h8.98v39.43h-8.98Z"/><use xlink:href="#z" fill="#fff" data-text="E" transform="matrix(35.915 0 0 -35.915 -271.062 595.553)"/><use xlink:href="#t" fill="#fff" data-text="N" transform="matrix(35.915 0 0 -35.915 -253.93 595.553)"/><use xlink:href="#u" fill="#fff" data-text="T" transform="matrix(35.915 0 0 -35.915 -233.746 595.553)"/><use xlink:href="#z" fill="#fff" data-text="E" transform="matrix(35.915 0 0 -35.915 -219.668 595.553)"/><use xlink:href="#r" fill="#fff" data-text="R" transform="matrix(35.915 0 0 -35.915 -202.536 595.553)"/><use xlink:href="#x" fill="#fff" data-text="P" transform="matrix(35.915 0 0 -35.915 -182.963 595.553)"/><use xlink:href="#r" fill="#fff" data-text="R" transform="matrix(35.915 0 0 -35.915 -164.61 595.553)"/><use xlink:href="#i" fill="#fff" data-text="I" transform="matrix(35.915 0 0 -35.915 -145.036 595.553)"/><use xlink:href="#A" fill="#fff" data-text="S" transform="matrix(35.915 0 0 -35.915 -135.232 595.553)"/><use xlink:href="#z" fill="#fff" data-text="E" transform="matrix(35.915 0 0 -35.915 -116.879 595.553)"/><use xlink:href="#K" fill="#fff" data-text="A" transform="matrix(15.117 0 0 -15.117 -270.642 610.868)"/><use xlink:href="#L" fill="#fff" data-text="s" transform="matrix(15.117 0 0 -15.117 -258.171 610.868)"/><use xlink:href="#L" fill="#fff" data-text="s" transform="matrix(15.117 0 0 -15.117 -249.775 610.868)"/><use xlink:href="#M" fill="#fff" data-text="e" transform="matrix(15.117 0 0 -15.117 -241.38 610.868)"/><use xlink:href="#L" fill="#fff" data-text="s" transform="matrix(15.117 0 0 -15.117 -231.862 610.868)"/><use xlink:href="#L" fill="#fff" data-text="s" transform="matrix(15.117 0 0 -15.117 -223.467 610.868)"/><use xlink:href="#N" fill="#fff" data-text="o" transform="matrix(15.117 0 0 -15.117 -215.07 610.868)"/><use xlink:href="#O" fill="#fff" data-text="r" transform="matrix(15.117 0 0 -15.117 -204.623 610.868)"/><use xlink:href="#P" fill="#fff" data-text="i" transform="matrix(15.117 0 0 -15.117 -196.552 610.868)"/><use xlink:href="#Q" fill="#fff" data-text="a" transform="matrix(15.117 0 0 -15.117 -189.995 610.868)"/><use xlink:href="#R" fill="#fff" data-text="C" transform="matrix(15.117 0 0 -15.117 -171.79 611.219)"/><use xlink:href="#N" fill="#fff" data-text="o" transform="matrix(15.117 0 0 -15.117 -159.851 611.219)"/><use xlink:href="#S" fill="#fff" data-text="n" transform="matrix(15.117 0 0 -15.117 -149.405 611.219)"/><use xlink:href="#T" fill="#fff" data-text="t" transform="matrix(15.117 0 0 -15.117 -138.33 611.219)"/><use xlink:href="#U" fill="#fff" data-text="á" transform="matrix(15.117 0 0 -15.117 -130.718 611.219)"/><use xlink:href="#V" fill="#fff" data-text="b" transform="matrix(15.117 0 0 -15.117 -121.186 611.219)"/><use xlink:href="#P" fill="#fff" data-text="i" transform="matrix(15.117 0 0 -15.117 -110.487 611.219)"/><use xlink:href="#W" fill="#fff" data-text="l" transform="matrix(15.117 0 0 -15.117 -103.93 611.219)"/><path fill="#fff" fill-rule="evenodd" d="M-301.022 558.176a33.4 33.4 0 0 1 20.202 6.76 33.8 33.8 0 0 0-18.286-5.338c-18.762 0-33.972 15.21-33.972 33.971a33.8 33.8 0 0 0 4.853 17.505h-.242a33.4 33.4 0 0 1-6.123-19.33c0-18.539 15.03-33.568 33.568-33.568"/><path fill="#fff" fill-rule="evenodd" d="M-321.424 571.645h8.98v39.43h-8.98ZM-306.003 586.042h8.979v25.032h-8.98ZM-289.607 571.645h8.98v39.43h-8.98Z"/></g></g></g></svg>